<svg width="209" height="209" viewBox="0 0 209 209" fill="none" xmlns="http://www.w3.org/2000/svg">
<g filter="url(#filter0_d_447_13)">
<circle cx="104.5" cy="104.5" r="77.5" fill="#06AA91"/>
</g>
<circle cx="104.5" cy="104.5" r="65.0168" fill="#01B89C"/>
<g clip-path="url(#clip0_447_13)">
<path d="M139.806 101.003L145.59 97.9373L141.682 86.0535L135.192 86.9319L129.39 79.0438L121.591 85.3301L122.659 86.4152C132.764 96.7317 132.61 113.299 122.297 123.428C120.92 124.788 119.388 125.977 117.752 126.993V126.786C117.752 123.738 115.29 121.275 112.243 121.275C111.486 121.275 110.866 120.655 110.866 119.897V117.141H118.923L120.18 109.58C120.472 107.91 119.698 106.222 118.234 105.361L113.621 102.588V99.9873C113.621 94.717 111.744 89.6364 108.318 85.6407L103.98 80.5772L99.6414 85.6407C96.2153 89.6364 94.3388 94.7172 94.3388 99.9873V102.588L89.725 105.361C88.2616 106.222 87.4869 107.91 87.7797 109.58L89.0364 117.141H97.0936V119.897C97.0936 120.655 96.4738 121.275 95.7163 121.275C92.6691 121.275 90.2072 123.738 90.2072 126.786V126.993C77.915 119.38 74.1269 103.259 81.7197 90.963C82.7355 89.3096 83.9405 87.7939 85.2835 86.4161L86.3509 85.3311L78.552 79.0447L72.7503 86.9328L66.2771 86.0545L62.3691 97.9554L68.1537 101.021V108.496L62.3691 111.562L66.2771 123.428L72.7675 122.55L77.2092 128.612L74.3169 134.502L84.5259 141.839L89.2948 137.31L96.5082 139.635L97.6789 146.076H110.281L111.452 139.635L118.665 137.31L123.434 141.839L133.643 134.502L130.751 128.612L135.192 122.55L141.683 123.428L145.591 111.527L139.806 108.461L139.806 101.003ZM94.3384 114.385H91.3773L90.4993 109.115C90.396 108.564 90.6542 107.995 91.1535 107.703L94.3384 105.791L94.3384 114.385ZM113.62 105.791L116.805 107.703C117.287 107.996 117.545 108.547 117.459 109.115L116.581 114.385H113.62L113.62 105.791ZM97.0929 99.9869C97.0929 95.3884 98.7456 90.9277 101.741 87.4315L103.979 84.8136L106.217 87.4315C109.213 90.9277 110.866 95.3884 110.866 99.9869V107.496H97.0929V99.9869ZM97.0929 110.252H110.866V114.385H97.0929V110.252ZM92.9611 126.786C92.9611 125.27 94.2006 124.03 95.7156 124.03C97.9882 124.03 99.8475 122.17 99.8475 119.897V117.141H108.111V119.897C108.111 122.17 109.97 124.03 112.243 124.03C113.758 124.03 114.997 125.27 114.997 126.786V128.474C108.008 131.729 99.9507 131.729 92.9611 128.474V126.786ZM139.788 120.396L133.952 119.604L127.548 128.319L130.147 133.623L123.674 138.273L119.37 134.192L109.024 137.516L107.973 143.32H99.9681L98.9179 137.516L88.5883 134.192L84.2843 138.273L77.8111 133.623L80.4108 128.319L74.0064 119.604L68.1702 120.396L65.7083 112.887L70.9074 110.131V99.3325L65.7083 96.5768L68.1702 89.0849L74.0064 89.8771L79.0678 82.988L82.2872 85.5887C77.6216 90.8761 75.0393 97.6791 75.0564 104.74C75.0564 120.688 88.0373 133.674 103.979 133.674C119.921 133.674 132.902 120.688 132.902 104.74C132.919 97.6783 130.337 90.8753 125.671 85.5887L128.89 82.988L133.952 89.8771L139.788 89.0849L142.25 96.5941L137.051 99.3498V110.148L142.25 112.904L139.788 120.396Z" fill="white"/>
<path d="M93.959 89.3946C88.7425 83.8662 88.9837 75.1342 94.5272 69.9161C100.071 64.698 108.782 64.9387 113.998 70.4844C119.008 75.7892 119.008 84.0905 113.998 89.3945L115.995 91.289C122.262 84.641 121.952 74.1866 115.324 67.9179C108.695 61.6492 98.2281 61.9588 91.9619 68.5896C85.9535 74.9621 85.9535 84.9172 91.9619 91.2899L93.959 89.3946Z" fill="white"/>
<path d="M113.017 86.2422C116.495 81.2475 115.273 74.3757 110.263 70.8966C105.27 67.4176 98.4011 68.6405 94.9234 73.6523C92.2895 77.4412 92.2895 82.4704 94.9234 86.2422L97.1787 84.6577C94.579 80.9031 95.4915 75.7535 99.2446 73.153C102.998 70.5524 108.145 71.4651 110.745 75.2197C112.725 78.0615 112.725 81.8333 110.745 84.6579L113.017 86.2422Z" fill="white"/>
<path d="M109.178 81.7812C110.194 78.9049 108.679 75.7704 105.821 74.7542C102.946 73.7381 99.8128 75.2537 98.7971 78.1127C98.3839 79.301 98.3839 80.5928 98.7971 81.7812L101.397 80.8683C100.898 79.4388 101.638 77.8543 103.084 77.355C104.513 76.8555 106.097 77.5961 106.596 79.0428C106.803 79.6284 106.803 80.2829 106.596 80.8685L109.178 81.7812Z" fill="white"/>
<path d="M102.602 119.896H105.357V128.163H102.602V119.896Z" fill="white"/>
<path d="M119.129 92.3393H121.884V97.8506H119.129V92.3393Z" fill="white"/>
<path d="M119.129 100.606H121.884V103.362H119.129V100.606Z" fill="white"/>
<path d="M124.638 97.8506H127.393V106.118H124.638V97.8506Z" fill="white"/>
<path d="M124.638 108.873H127.393V111.629H124.638V108.873Z" fill="white"/>
<path d="M80.5656 97.8506H83.3202V106.118H80.5656V97.8506Z" fill="white"/>
<path d="M80.5656 108.873H83.3202V111.629H80.5656V108.873Z" fill="white"/>
<path d="M86.0747 92.3393H88.8293V97.8506H86.0747V92.3393Z" fill="white"/>
<path d="M86.0747 100.606H88.8293V103.362H86.0747V100.606Z" fill="white"/>
<path d="M103.979 95.0949C101.69 95.0949 99.8475 96.9377 99.8475 99.2284C99.8475 101.519 101.69 103.362 103.979 103.362C106.269 103.362 108.111 101.519 108.111 99.2284C108.111 96.9549 106.252 95.0949 103.979 95.0949ZM103.979 100.606C103.222 100.606 102.602 99.9862 102.602 99.2284C102.602 98.4706 103.222 97.8506 103.979 97.8506C104.737 97.8506 105.357 98.4706 105.357 99.2284C105.357 99.9862 104.737 100.606 103.979 100.606Z" fill="white"/>
</g>
<defs>
<filter id="filter0_d_447_13" x="0" y="0" width="209" height="209" filterUnits="userSpaceOnUse" color-interpolation-filters="sRGB">
<feFlood flood-opacity="0" result="BackgroundImageFix"/>
<feColorMatrix in="SourceAlpha" type="matrix" values="0 0 0 0 0 0 0 0 0 0 0 0 0 0 0 0 0 0 127 0" result="hardAlpha"/>
<feMorphology radius="8" operator="dilate" in="SourceAlpha" result="effect1_dropShadow_447_13"/>
<feOffset/>
<feGaussianBlur stdDeviation="9.5"/>
<feComposite in2="hardAlpha" operator="out"/>
<feColorMatrix type="matrix" values="0 0 0 0 0.282813 0 0 0 0 0.754167 0 0 0 0 0.725885 0 0 0 0.36 0"/>
<feBlend mode="normal" in2="BackgroundImageFix" result="effect1_dropShadow_447_13"/>
<feBlend mode="normal" in="SourceGraphic" in2="effect1_dropShadow_447_13" result="shape"/>
</filter>
<clipPath id="clip0_447_13">
<rect width="83.2215" height="83.2215" fill="white" transform="translate(62.3691 63.4094)"/>
</clipPath>
</defs>
</svg>
