<svg width="209" height="209" viewBox="0 0 209 209" fill="none" xmlns="http://www.w3.org/2000/svg">
<g filter="url(#filter0_d_447_58)">
<circle cx="104.5" cy="104.5" r="77.5" fill="#06AA91"/>
</g>
<circle cx="104.5" cy="104.5" r="65.0168" fill="#01B89C"/>
<g clip-path="url(#clip0_447_58)">
<path d="M92.8839 68.9576H95.6579V71.7317H92.8839V68.9576Z" fill="white"/>
<path d="M98.432 68.9576H101.206V71.7317H98.432V68.9576Z" fill="white"/>
<path d="M103.98 68.9576H106.754V71.7317H103.98V68.9576Z" fill="white"/>
<path d="M92.8839 74.5057H120.624V77.2798H92.8839V74.5057Z" fill="white"/>
<path d="M119.299 126.923C120.172 125.308 120.628 123.5 120.624 121.664C120.614 119.198 119.787 116.805 118.272 114.859C116.758 112.913 114.641 111.524 112.253 110.908C111.99 108.133 110.692 105.559 108.618 103.698C106.544 101.836 103.846 100.824 101.058 100.86C98.2721 100.897 95.6008 101.982 93.5773 103.898C91.5754 102.003 88.9401 100.92 86.1839 100.861C83.4278 100.803 80.7486 101.772 78.6681 103.581C76.5875 105.389 75.255 107.907 74.9293 110.645C71.2828 111.078 68.0871 113.288 66.3935 116.546C64.6999 119.804 64.7278 123.689 66.4684 126.923C64.0813 128.862 62.6065 131.705 62.3953 134.773C62.1842 137.841 63.256 140.859 65.3545 143.106C67.453 145.355 70.3906 146.631 73.4655 146.631H112.302C115.377 146.631 118.315 145.355 120.413 143.107C122.512 140.859 123.583 137.841 123.372 134.773C123.161 131.705 121.686 128.862 119.299 126.923ZM112.302 143.857H107.501C106.955 142.917 106.699 141.837 106.764 140.751C106.828 139.666 107.21 138.624 107.863 137.754L105.645 136.088C103.976 138.316 103.528 141.231 104.454 143.857H91.4968C89.0194 143.857 86.7296 142.535 85.4911 140.39C84.2521 138.244 84.2521 135.6 85.4911 133.454C86.7295 131.309 89.0194 129.987 91.4968 129.987H96.8697C96.5601 131.177 95.8654 132.231 94.8932 132.984C93.921 133.737 92.7266 134.146 91.4968 134.148V136.922C93.4627 136.92 95.3649 136.222 96.8666 134.953C98.3681 133.684 99.373 131.925 99.7032 129.987H103.98V127.213H95.5712C94.1154 127.189 92.7272 126.593 91.7061 125.556C90.6844 124.518 90.1111 123.12 90.1098 121.665C90.1061 120.463 90.4956 119.294 91.2194 118.336L89.0002 116.67C87.8194 118.243 87.2348 120.183 87.3494 122.146C87.4639 124.11 88.2702 125.969 89.6255 127.394C86.3542 128.043 83.6422 130.32 82.4365 133.43L82.3572 133.376C81.7572 134.274 80.8755 134.945 79.8513 135.286C78.8277 135.627 77.7194 135.617 76.7014 135.259L75.7763 137.875V137.874C77.7552 138.572 79.9342 138.425 81.8024 137.469C81.9387 139.887 82.9765 142.167 84.7115 143.857H73.4656C71.1795 143.858 68.9931 142.918 67.4215 141.258C65.8494 139.597 65.0301 137.364 65.1559 135.081C65.2815 132.798 66.3416 130.667 68.0859 129.189C69.0487 130.233 70.2017 131.082 71.4835 131.692L72.6736 129.187C71.3925 128.576 70.2884 127.649 69.4643 126.494L69.4618 126.49H69.4612C68.2736 124.822 67.7416 122.775 67.9689 120.74C68.1955 118.705 69.1646 116.826 70.691 115.461C72.2167 114.096 74.1926 113.342 76.2397 113.343C76.6075 113.343 76.9604 113.196 77.2205 112.936C77.4805 112.676 77.6267 112.323 77.6267 111.955C77.6261 109.752 78.4991 107.638 80.0551 106.078C81.6112 104.518 83.7234 103.638 85.9264 103.633C88.1301 103.628 90.2454 104.498 91.8088 106.051C90.9809 107.363 90.4398 108.836 90.2218 110.372L92.9679 110.765C93.1704 109.336 93.745 107.985 94.6348 106.848C94.6454 106.835 94.6565 106.824 94.667 106.812C96.1017 104.986 98.2343 103.843 100.549 103.659C102.865 103.475 105.151 104.267 106.856 105.844C108.561 107.42 109.53 109.638 109.528 111.96C109.527 111.987 109.526 112.014 109.526 112.042C109.519 112.737 110.028 113.33 110.717 113.429C112.694 113.721 114.501 114.713 115.81 116.224C117.119 117.735 117.843 119.665 117.85 121.665C117.852 123.229 117.411 124.761 116.576 126.083C116.161 126.746 115.654 127.348 115.073 127.871C114.927 128.002 113.142 129.294 113.094 129.187L114.284 131.693C115.566 131.083 116.72 130.234 117.682 129.19C119.427 130.668 120.486 132.799 120.612 135.081C120.737 137.364 119.917 139.598 118.346 141.258C116.774 142.918 114.588 143.858 112.302 143.857Z" fill="white"/>
<path d="M74.8527 122.359C74.8502 123.869 75.2979 125.344 76.1381 126.598L78.4434 125.055C77.6849 123.917 77.4422 122.512 77.7735 121.185C78.1047 119.859 78.9797 118.733 80.184 118.085C81.3878 117.436 82.8094 117.326 84.0992 117.78L85.0243 115.164V115.165C82.6893 114.341 80.0998 114.702 78.0781 116.132C76.0564 117.561 74.8539 119.883 74.8527 122.359Z" fill="white"/>
<path d="M102.197 113.343C101.187 113.341 100.189 113.549 99.2635 113.953L100.374 116.496C101.501 116.004 102.777 115.99 103.915 116.453C105.053 116.916 105.955 117.819 106.418 118.956C106.882 120.094 106.866 121.371 106.375 122.497L108.917 123.608H108.918C109.906 121.341 109.685 118.728 108.331 116.659C106.976 114.59 104.67 113.343 102.197 113.343Z" fill="white"/>
<path d="M108.212 99.0332L113.761 82.3888L116.392 83.2662L110.844 99.9106L108.212 99.0332Z" fill="white"/>
<path d="M104.386 83.2337L97.4508 90.1688C97.1907 90.4289 97.0446 90.7819 97.0446 91.1497C97.0446 91.5175 97.1907 91.8704 97.4508 92.1305L104.386 99.0656L106.347 97.104L100.393 91.1498L106.347 85.1955L104.386 83.2337Z" fill="white"/>
<path d="M120.218 99.0664L127.154 92.1313C127.414 91.8712 127.56 91.5183 127.56 91.1505C127.56 90.7827 127.414 90.4297 127.154 90.1696L120.218 83.2345L118.257 85.1962L124.211 91.1504L118.257 97.1046L120.218 99.0664Z" fill="white"/>
<path d="M73.4656 89.763C72.6025 89.7599 71.7876 90.16 71.2626 90.8448C70.7375 91.529 70.5623 92.4201 70.7889 93.2528L68.3238 95.7173C68.0637 95.9774 67.9176 96.3303 67.9176 96.6981V109.181H70.6916V97.2728L72.7498 95.2146V95.214C73.5213 95.4208 74.3443 95.2845 75.008 94.8406C75.6712 94.3966 76.1115 93.6882 76.2155 92.8968C76.3195 92.1049 76.0768 91.3067 75.5505 90.7067C75.0235 90.1067 74.2637 89.763 73.4656 89.763Z" fill="white"/>
<path d="M65.1435 88.9498L68.4922 85.6012H71.0668C71.4767 86.3114 72.1801 86.8037 72.9876 86.9461C73.795 87.0885 74.6241 86.8662 75.2526 86.3393C75.8805 85.8123 76.2433 85.034 76.2433 84.2142C76.2433 83.3944 75.8805 82.616 75.2526 82.0891C74.6241 81.5622 73.795 81.3399 72.9876 81.4823C72.1801 81.6247 71.4767 82.117 71.0668 82.8272H67.9176C67.5498 82.8272 67.1968 82.9733 66.9368 83.2334L62.7757 87.3945C62.5156 87.6546 62.3695 88.0075 62.3695 88.3753V113.342H65.1435V88.9498Z" fill="white"/>
<path d="M73.4656 98.0852H76.2397V102.246H73.4656V98.0852Z" fill="white"/>
<path d="M68.4914 77.2798H71.066C71.4759 77.99 72.1793 78.4823 72.9868 78.6247C73.7942 78.7671 74.6233 78.5448 75.2518 78.0179C75.8797 77.491 76.2425 76.7126 76.2425 75.8928C76.2425 75.073 75.8797 74.2946 75.2518 73.7677C74.6233 73.2408 73.7942 73.0185 72.9868 73.1609C72.1793 73.3033 71.4759 73.7956 71.066 74.5058H67.9168C67.549 74.5058 67.196 74.652 66.936 74.912L62.7749 79.0731L64.7365 81.0348L68.4914 77.2798Z" fill="white"/>
<path d="M71.2654 68.9576H80.3999V66.1836H70.6908C70.323 66.1836 69.9701 66.3297 69.71 66.5898L65.5489 70.7508L67.5106 72.7125L71.2654 68.9576Z" fill="white"/>
<path d="M125.191 137.328L127.153 139.289L131.314 135.128C131.574 134.868 131.72 134.515 131.72 134.148V130.998C132.43 130.588 132.922 129.885 133.065 129.078C133.207 128.27 132.985 127.441 132.458 126.812C131.931 126.185 131.153 125.822 130.333 125.822C129.513 125.822 128.735 126.185 128.208 126.812C127.681 127.441 127.459 128.27 127.601 129.078C127.744 129.885 128.236 130.588 128.946 130.998V133.574L125.191 137.328Z" fill="white"/>
<path d="M137.268 125.826C136.449 125.825 135.671 126.187 135.143 126.815C134.616 127.443 134.394 128.272 134.537 129.079C134.679 129.886 135.171 130.589 135.882 130.999V134.961L126.578 144.264L128.54 146.226L138.249 136.516V136.516C138.509 136.256 138.655 135.903 138.655 135.535V130.999C139.366 130.589 139.858 129.886 140 129.079C140.143 128.272 139.921 127.443 139.394 126.815C138.866 126.188 138.088 125.825 137.268 125.826Z" fill="white"/>
<path d="M138.655 70.3446H132.295L125.766 63.8156C125.506 63.5556 125.153 63.4094 124.785 63.4094H92.8838C91.4126 63.4113 90.0026 63.9964 88.9624 65.0361C87.9228 66.0764 87.3376 67.4863 87.3357 68.9575V70.3446H85.9487C84.1103 70.3464 82.3474 71.0777 81.0471 72.378C79.7468 73.6783 79.0155 75.4412 79.0136 77.2797V99.4722H81.7877V77.2797C81.7889 76.1763 82.2279 75.1186 83.0081 74.3391C83.7877 73.5588 84.8453 73.1198 85.9488 73.1186H87.3358V98.0851H90.1098V68.9575C90.1104 68.2219 90.4033 67.5172 90.9234 66.9971C91.4436 66.477 92.1482 66.1841 92.8838 66.1835H123.398V73.1186C123.399 74.222 123.838 75.2797 124.619 76.0593C125.398 76.8395 126.456 77.2785 127.559 77.2797H134.494V107.794H137.268V75.8927C137.268 75.5249 137.122 75.1719 136.862 74.9119L135.069 73.1187H138.656C139.759 73.12 140.817 73.559 141.597 74.3386C142.376 75.1188 142.815 76.1764 142.817 77.2799V110.569H120.624V113.343H142.817V116.117C142.815 117.22 142.376 118.278 141.597 119.058C140.817 119.838 139.759 120.277 138.656 120.278H123.398V123.052H138.656C140.494 123.05 142.257 122.319 143.557 121.018C144.857 119.718 145.589 117.955 145.591 116.117V77.2799C145.589 75.4414 144.857 73.6786 143.557 72.3782C142.257 71.0779 140.494 70.3465 138.655 70.3446ZM127.559 74.5057C126.793 74.5051 126.173 73.8847 126.172 73.1187V68.1452L132.533 74.5057H127.559Z" fill="white"/>
</g>
<defs>
<filter id="filter0_d_447_58" x="0" y="0" width="209" height="209" filterUnits="userSpaceOnUse" color-interpolation-filters="sRGB">
<feFlood flood-opacity="0" result="BackgroundImageFix"/>
<feColorMatrix in="SourceAlpha" type="matrix" values="0 0 0 0 0 0 0 0 0 0 0 0 0 0 0 0 0 0 127 0" result="hardAlpha"/>
<feMorphology radius="8" operator="dilate" in="SourceAlpha" result="effect1_dropShadow_447_58"/>
<feOffset/>
<feGaussianBlur stdDeviation="9.5"/>
<feComposite in2="hardAlpha" operator="out"/>
<feColorMatrix type="matrix" values="0 0 0 0 0.282813 0 0 0 0 0.754167 0 0 0 0 0.725885 0 0 0 0.36 0"/>
<feBlend mode="normal" in2="BackgroundImageFix" result="effect1_dropShadow_447_58"/>
<feBlend mode="normal" in="SourceGraphic" in2="effect1_dropShadow_447_58" result="shape"/>
</filter>
<clipPath id="clip0_447_58">
<rect width="83.2215" height="83.2215" fill="white" transform="translate(62.3691 63.4094)"/>
</clipPath>
</defs>
</svg>
