<svg width="209" height="209" viewBox="0 0 209 209" fill="none" xmlns="http://www.w3.org/2000/svg">
<g filter="url(#filter0_d_447_130)">
<circle cx="104.5" cy="104.5" r="77.5" fill="#06AA91"/>
</g>
<circle cx="104.5" cy="104.5" r="65.0168" fill="#01B89C"/>
<g clip-path="url(#clip0_447_130)">
<path d="M98.1272 71.1412C98.1272 71.8727 97.5344 72.4661 96.803 72.4661C96.0716 72.4661 95.4782 71.8727 95.4782 71.1412C95.4782 70.4098 96.0716 69.817 96.803 69.817C97.5344 69.817 98.1272 70.4098 98.1272 71.1412Z" fill="white"/>
<path d="M100.775 69.817H111.37V72.466H100.775V69.817Z" fill="white"/>
<path d="M144.481 94.9801C144.481 87.3939 138.651 81.1507 131.237 80.4793V71.1408C131.237 67.4894 128.266 64.519 124.615 64.519H82.235C78.5837 64.519 75.6132 67.4894 75.6132 71.1408V80.4117H67.6667V85.7092H62.3691V109.548H72.9642V113.826C71.7368 112.823 70.1909 112.197 68.4852 112.197C66.5727 112.197 65.0181 113.753 65.0181 115.664C65.0181 116.199 65.1453 116.737 65.3836 117.215C66.8774 120.202 67.6666 123.545 67.6666 126.886V130.095C67.6666 132.537 68.6557 134.926 70.3826 136.652L70.5813 136.851C69.6214 137.576 68.9907 138.715 68.9907 140.009V146.631H95.4777V141.333H124.614C128.266 141.333 131.236 138.363 131.236 134.712V109.481C138.65 108.81 144.48 102.567 144.48 94.9804L144.481 94.9801ZM82.2341 67.1676H124.614C126.805 67.1676 128.588 68.95 128.588 71.1409V75.1143L78.2602 75.1137V71.1404C78.2602 68.95 80.0432 67.1676 82.2341 67.1676ZM78.2608 77.7627H128.588V80.4787C121.174 81.15 115.344 87.3931 115.344 94.9795C115.344 102.566 121.174 108.809 128.588 109.48V128.089H96.8035V114.847C96.8035 112.658 95.0222 110.873 92.8301 110.872V109.548H112.695V85.7092H107.398V80.4117H78.2612L78.2608 77.7627ZM86.0534 109.839C85.5969 108.151 84.0658 106.899 82.2341 106.899C81.7679 106.899 81.3257 106.994 80.9099 107.143V104.251H107.398L107.398 88.3575H110.047V106.899L90.1801 106.898V110.58C89.4756 109.944 88.5522 109.547 87.5311 109.547C87.0087 109.547 86.5116 109.654 86.0534 109.838L86.0534 109.839ZM88.8559 101.602V83.0604H104.749V101.602H88.8559ZM70.3147 83.0604H86.2078V101.602H80.9102V100.277C80.9102 98.087 79.1278 96.304 76.9369 96.304C74.7465 96.304 72.9635 98.0864 72.9635 100.277V101.602L70.3151 101.601L70.3147 83.0604ZM65.0171 106.899V88.3581H67.6661V104.251H72.9637V106.9L65.0171 106.899ZM70.3129 130.094V126.885C70.3129 123.137 69.4268 119.384 67.7514 116.031C67.6947 115.916 67.6655 115.792 67.6655 115.664C67.6655 115.212 68.0327 114.846 68.484 114.846C70.9538 114.846 72.9631 116.856 72.9631 119.326V122.792H75.6121V100.277C75.6121 99.5461 76.2066 98.9527 76.9363 98.9527C77.666 98.9527 78.2605 99.5461 78.2605 100.277V122.792H80.9095V110.872C80.9095 110.142 81.5041 109.548 82.2338 109.548C82.9635 109.548 83.558 110.142 83.558 110.872V122.792H86.207V113.521C86.207 112.791 86.8015 112.197 87.5312 112.197C88.261 112.197 88.8555 112.791 88.8555 113.521V122.792H91.5045V114.844C91.5045 114.114 92.099 113.522 92.8276 113.522C93.5584 113.523 94.153 114.116 94.153 114.847V130.096C94.153 131.865 93.4645 133.528 92.2141 134.779L90.9557 136.037H73.5113L72.2529 134.78C71.0203 133.547 70.313 131.839 70.313 130.095L70.3129 130.094ZM92.8292 143.982H71.6384V140.008C71.6384 139.278 72.233 138.684 72.9627 138.684H91.5039C92.2336 138.684 92.8281 139.278 92.8281 140.008L92.8292 143.982ZM124.614 138.684H95.2339C94.9716 137.947 94.5014 137.314 93.8885 136.85L94.0873 136.651C95.6848 135.052 96.6184 132.971 96.7707 130.738H128.588V134.712C128.588 136.902 126.805 138.684 124.614 138.684ZM129.912 106.9C123.34 106.9 117.992 101.553 117.992 94.9803C117.992 88.4072 123.34 83.061 129.912 83.061C136.483 83.061 141.831 88.4078 141.831 94.9803C141.831 101.553 136.483 106.9 129.912 106.9Z" fill="white"/>
<path d="M128.588 91.0065H131.237C131.967 91.0065 132.561 91.5999 132.561 92.3307H135.21C135.21 90.1404 133.428 88.3574 131.237 88.3574V85.7084H128.588V88.3574C126.397 88.3574 124.614 90.1398 124.614 92.3307C124.614 94.5211 126.397 96.3041 128.588 96.3041H131.237C131.967 96.3041 132.561 96.8975 132.561 97.6283C132.561 98.3592 131.966 98.9525 131.237 98.9525H128.588C127.858 98.9525 127.264 98.3592 127.264 97.6283H124.615C124.615 99.8187 126.397 101.602 128.588 101.602V104.251H131.237V101.602C133.427 101.602 135.21 99.8192 135.21 97.6283C135.21 95.438 133.428 93.655 131.237 93.655H128.588C127.858 93.655 127.264 93.0616 127.264 92.3307C127.264 91.5999 127.858 91.0065 128.588 91.0065Z" fill="white"/>
<path d="M98.1272 133.388H108.722V136.037H98.1272V133.388Z" fill="white"/>
<path d="M99.4513 112.197H102.1V114.846H99.4513V112.197Z" fill="white"/>
<path d="M104.749 112.197H125.94V114.846H104.749V112.197Z" fill="white"/>
<path d="M99.4513 117.495H125.938V120.144H99.4513V117.495Z" fill="white"/>
<path d="M99.4513 122.793H104.749V125.442H99.4513V122.793Z" fill="white"/>
<path d="M107.399 122.793H120.643V125.442H107.399V122.793Z" fill="white"/>
<path d="M123.29 122.793H125.939V125.442H123.29V122.793Z" fill="white"/>
<path d="M72.9642 85.7103H83.5594V88.3593H72.9642V85.7103Z" fill="white"/>
<path d="M72.9642 91.0065H83.5594V93.6555H72.9642V91.0065Z" fill="white"/>
<path d="M91.5055 85.7103H102.101V88.3593H91.5055V85.7103Z" fill="white"/>
<path d="M91.5055 91.0065H102.101V93.6555H91.5055V91.0065Z" fill="white"/>
<path d="M91.5055 96.3042H102.101V98.9532H91.5055V96.3042Z" fill="white"/>
</g>
<defs>
<filter id="filter0_d_447_130" x="0" y="0" width="209" height="209" filterUnits="userSpaceOnUse" color-interpolation-filters="sRGB">
<feFlood flood-opacity="0" result="BackgroundImageFix"/>
<feColorMatrix in="SourceAlpha" type="matrix" values="0 0 0 0 0 0 0 0 0 0 0 0 0 0 0 0 0 0 127 0" result="hardAlpha"/>
<feMorphology radius="8" operator="dilate" in="SourceAlpha" result="effect1_dropShadow_447_130"/>
<feOffset/>
<feGaussianBlur stdDeviation="9.5"/>
<feComposite in2="hardAlpha" operator="out"/>
<feColorMatrix type="matrix" values="0 0 0 0 0.282813 0 0 0 0 0.754167 0 0 0 0 0.725885 0 0 0 0.36 0"/>
<feBlend mode="normal" in2="BackgroundImageFix" result="effect1_dropShadow_447_130"/>
<feBlend mode="normal" in="SourceGraphic" in2="effect1_dropShadow_447_130" result="shape"/>
</filter>
<clipPath id="clip0_447_130">
<rect width="83.2215" height="83.2215" fill="white" transform="translate(62.3691 63.4094)"/>
</clipPath>
</defs>
</svg>
