<svg width="209" height="209" viewBox="0 0 209 209" fill="none" xmlns="http://www.w3.org/2000/svg">
<g filter="url(#filter0_d_447_112)">
<circle cx="104.5" cy="104.5" r="77.5" fill="#06AA91"/>
</g>
<circle cx="104.5" cy="104.5" r="65.0168" fill="#01B89C"/>
<g clip-path="url(#clip0_447_112)">
<path d="M132.168 100.993H137.784C138.339 102.552 139.816 103.678 141.564 103.678C143.784 103.678 145.591 101.871 145.591 99.6512C145.591 97.4309 143.784 95.6243 141.564 95.6243C139.816 95.6243 138.34 96.7503 137.784 98.3089H132.168V94.8375L136.75 90.2552H137.784C138.339 91.8137 139.816 92.9397 141.564 92.9397C143.784 92.9397 145.591 91.1331 145.591 88.9129C145.591 86.6926 143.784 84.886 141.564 84.886C139.816 84.886 138.34 86.012 137.784 87.5706H136.195C135.839 87.5706 135.497 87.7114 135.245 87.9637L132.168 91.0419V83.5436C132.168 79.8428 129.157 76.8322 125.457 76.8322H117.958L121.036 73.7546C121.289 73.5035 121.43 73.1626 121.43 72.8054V71.2163C122.988 70.6602 124.114 69.1837 124.114 67.4363C124.114 65.2161 122.308 63.4094 120.087 63.4094C117.867 63.4094 116.06 65.2161 116.06 67.4363C116.06 69.1837 117.186 70.6602 118.745 71.2163V72.25L115.111 75.8838C114.859 76.1343 114.718 76.4753 114.718 76.8324H110.691V73.901C112.25 73.3449 113.376 71.8684 113.376 70.121C113.376 67.9008 111.569 66.0941 109.349 66.0941C107.129 66.0941 105.322 67.9008 105.322 70.121C105.322 71.8684 106.448 73.3449 108.007 73.901V76.8324H99.953V71.2165C101.512 70.6604 102.638 69.1838 102.638 67.4364C102.638 65.2162 100.831 63.4096 98.6108 63.4096C96.3905 63.4096 94.5839 65.2162 94.5839 67.4364C94.5839 69.1838 95.7099 70.6604 97.2685 71.2165V76.8324H93.7971L89.2148 72.2501V71.2164C90.7734 70.6603 91.8994 69.1838 91.8994 67.4364C91.8994 65.2162 90.0927 63.4095 87.8725 63.4095C85.6523 63.4095 83.8457 65.2162 83.8457 67.4364C83.8457 69.1838 84.9716 70.6603 86.5302 71.2164V72.8055C86.5302 73.1627 86.6711 73.5036 86.9233 73.7547L90.0015 76.8323H82.5033C78.8025 76.8323 75.7919 79.8429 75.7919 83.5437V91.042L72.7144 87.9644C72.4633 87.7115 72.1211 87.5707 71.7652 87.5707H70.1761C69.62 86.0121 68.1435 84.8861 66.3961 84.8861C64.1758 84.8861 62.3692 86.6928 62.3692 88.913C62.3692 91.1332 64.1758 92.9398 66.3961 92.9398C68.1435 92.9398 69.62 91.8139 70.1761 90.2553H71.2097L75.7921 94.8376V98.309H70.1761C69.62 96.7504 68.1435 95.6244 66.3961 95.6244C64.1759 95.6244 62.3693 97.431 62.3693 99.6513C62.3693 101.871 64.1759 103.678 66.3961 103.678C68.1435 103.678 69.62 102.552 70.1761 100.994H75.7921V109.047H72.8607C72.3046 107.489 70.8281 106.363 69.0807 106.363C66.8605 106.363 65.0538 108.169 65.0538 110.39C65.0538 112.61 66.8605 114.416 69.0807 114.416C70.8281 114.416 72.3046 113.29 72.8607 111.732H75.7921V115.759C75.4361 115.759 75.0939 115.9 74.8429 116.152L71.2097 119.786H70.176C69.6199 118.227 68.1434 117.101 66.396 117.101C64.1758 117.101 62.3691 118.908 62.3691 121.128C62.3691 123.348 64.1758 125.155 66.396 125.155C68.1434 125.155 69.6199 124.029 70.176 122.47H71.7651C72.121 122.47 72.4632 122.329 72.7143 122.077L75.7919 118.999V126.497C75.7919 130.198 78.8024 133.209 82.5033 133.209H89.2146V130.524H82.5033C80.283 130.524 78.4764 128.717 78.4764 126.497V83.544C78.4764 81.3238 80.283 79.5171 82.5033 79.5171H125.456C127.676 79.5171 129.483 81.3238 129.483 83.544V126.497C129.483 128.717 127.676 130.524 125.456 130.524H118.745V133.209H125.456C129.157 133.209 132.168 130.198 132.168 126.497V118.999L135.245 122.077C135.496 122.329 135.838 122.47 136.194 122.47H137.783C138.339 124.029 139.815 125.155 141.563 125.155C143.784 125.155 145.59 123.348 145.59 121.128C145.59 118.908 143.784 117.101 141.563 117.101C139.816 117.101 138.34 118.227 137.783 119.786H136.75L133.116 116.152C132.865 115.9 132.523 115.759 132.167 115.759V111.732H135.099C135.654 113.29 137.131 114.416 138.879 114.416C141.099 114.416 142.906 112.61 142.906 110.39C142.906 108.169 141.099 106.363 138.879 106.363C137.131 106.363 135.655 107.489 135.099 109.047H132.167L132.168 100.993ZM141.564 98.3089C142.303 98.3089 142.906 98.9105 142.906 99.6512C142.906 100.392 142.303 100.993 141.564 100.993C140.824 100.993 140.221 100.392 140.221 99.6512C140.221 98.9105 140.824 98.3089 141.564 98.3089ZM141.564 87.5706C142.303 87.5706 142.906 88.1722 142.906 88.9129C142.906 89.6535 142.303 90.2552 141.564 90.2552C140.824 90.2552 140.221 89.6535 140.221 88.9129C140.221 88.1722 140.824 87.5706 141.564 87.5706ZM120.087 66.094C120.827 66.094 121.43 66.6956 121.43 67.4363C121.43 68.1769 120.827 68.7786 120.087 68.7786C119.348 68.7786 118.745 68.1769 118.745 67.4363C118.745 66.6956 119.348 66.094 120.087 66.094ZM109.349 68.7786C110.088 68.7786 110.691 69.3802 110.691 70.1209C110.691 70.8615 110.088 71.4631 109.349 71.4631C108.61 71.4631 108.007 70.8615 108.007 70.1209C108.007 69.3802 108.61 68.7786 109.349 68.7786ZM98.6108 66.094C99.3502 66.094 99.9531 66.6956 99.9531 67.4363C99.9531 68.1769 99.3502 68.7786 98.6108 68.7786C97.8713 68.7786 97.2685 68.1769 97.2685 67.4363C97.2685 66.6956 97.8713 66.094 98.6108 66.094ZM87.8726 66.094C88.612 66.094 89.2148 66.6956 89.2148 67.4363C89.2148 68.1769 88.612 68.7786 87.8726 68.7786C87.1331 68.7786 86.5303 68.1769 86.5303 67.4363C86.5303 66.6956 87.1331 66.094 87.8726 66.094ZM66.3961 90.2552C65.6567 90.2552 65.0538 89.6535 65.0538 88.9129C65.0538 88.1722 65.6567 87.5706 66.3961 87.5706C67.1356 87.5706 67.7384 88.1722 67.7384 88.9129C67.7384 89.6535 67.1356 90.2552 66.3961 90.2552ZM66.3961 100.993C65.6567 100.993 65.0538 100.392 65.0538 99.6512C65.0538 98.9105 65.6567 98.3089 66.3961 98.3089C67.1356 98.3089 67.7384 98.9105 67.7384 99.6512C67.7384 100.392 67.1356 100.993 66.3961 100.993ZM69.0807 111.732C68.3412 111.732 67.7384 111.13 67.7384 110.389C67.7384 109.649 68.3412 109.047 69.0807 109.047C69.8201 109.047 70.4229 109.649 70.4229 110.389C70.4229 111.13 69.8201 111.732 69.0807 111.732ZM66.3961 122.47C65.6567 122.47 65.0538 121.868 65.0538 121.128C65.0538 120.387 65.6567 119.785 66.3961 119.785C67.1356 119.785 67.7384 120.387 67.7384 121.128C67.7384 121.868 67.1356 122.47 66.3961 122.47ZM141.564 119.785C142.303 119.785 142.906 120.387 142.906 121.128C142.906 121.868 142.303 122.47 141.564 122.47C140.824 122.47 140.221 121.868 140.221 121.128C140.221 120.387 140.824 119.785 141.564 119.785ZM138.879 109.047C139.619 109.047 140.221 109.649 140.221 110.389C140.221 111.13 139.619 111.732 138.879 111.732C138.14 111.732 137.537 111.13 137.537 110.389C137.537 109.649 138.14 109.047 138.879 109.047Z" fill="white"/>
<path d="M113.376 125.669C120.743 122.08 125.456 114.599 125.456 106.363C125.456 94.5212 115.821 84.886 103.98 84.886C92.1386 84.886 82.5035 94.5212 82.5035 106.363C82.5035 114.599 87.2165 122.08 94.584 125.669V127.839H91.8994V130.523H94.584V133.208H91.8994V135.893H94.584V139.919C94.584 140.662 95.1856 141.262 95.9262 141.262H97.4039C98.0283 144.321 100.738 146.631 103.98 146.631C107.222 146.631 109.931 144.321 110.556 141.262H112.034C112.774 141.262 113.376 140.662 113.376 139.919V135.893H116.06V133.208H113.376V130.523H116.06V127.839H113.376L113.376 125.669ZM96.4632 123.58C90.8741 121.135 86.9006 116.184 85.6266 110.389H90.804C91.3594 111.948 92.8359 113.074 94.584 113.074C96.8042 113.074 98.6108 111.267 98.6108 109.047C98.6108 106.827 96.8042 105.02 94.584 105.02C92.8365 105.02 91.36 106.146 90.804 107.705H85.2377C85.2054 107.261 85.188 106.814 85.188 106.362C85.188 105.589 85.2497 104.831 85.3408 104.081L89.7703 99.651H93.4885C94.044 101.21 95.5205 102.336 97.2685 102.336C99.4887 102.336 101.295 100.529 101.295 98.3087C101.295 96.0885 99.4887 94.2819 97.2685 94.2819C95.5211 94.2819 94.0446 95.4078 93.4885 96.9664H89.2148C88.8589 96.9664 88.5167 97.1073 88.2656 97.3595L86.7568 98.8684C89.6576 92.2283 96.2822 87.5705 103.979 87.5705C111.677 87.5705 118.302 92.2283 121.202 98.8684L119.693 97.3595C119.443 97.1073 119.1 96.9664 118.745 96.9664H114.471C113.915 95.4079 112.439 94.2819 110.691 94.2819C108.471 94.2819 106.664 96.0885 106.664 98.3087C106.664 100.529 108.471 102.336 110.691 102.336C112.438 102.336 113.915 101.21 114.471 99.651H118.189L122.619 104.081C122.71 104.831 122.771 105.589 122.771 106.362C122.771 106.814 122.754 107.261 122.722 107.705H117.155C116.6 106.146 115.123 105.02 113.375 105.02C111.155 105.02 109.349 106.827 109.349 109.047C109.349 111.267 111.155 113.074 113.375 113.074C115.123 113.074 116.599 111.948 117.155 110.389H122.333C121.059 116.184 117.086 121.135 111.496 123.58C111.008 123.793 110.691 124.277 110.691 124.809V127.839H105.322V119.538C106.88 118.983 108.006 117.506 108.006 115.758C108.006 113.538 106.2 111.732 103.979 111.732C101.759 111.732 99.9526 113.538 99.9526 115.758C99.9526 117.506 101.079 118.982 102.637 119.538V127.839H97.268V124.809C97.268 124.277 96.9533 123.794 96.4632 123.58ZM93.2417 109.047C93.2417 108.306 93.8445 107.705 94.584 107.705C95.3234 107.705 95.9262 108.306 95.9262 109.047C95.9262 109.788 95.3234 110.389 94.584 110.389C93.8445 110.389 93.2417 109.788 93.2417 109.047ZM95.9262 98.3087C95.9262 97.5681 96.5291 96.9664 97.2685 96.9664C98.008 96.9664 98.6108 97.5681 98.6108 98.3087C98.6108 99.0494 98.008 99.651 97.2685 99.651C96.5291 99.651 95.9262 99.0494 95.9262 98.3087ZM112.034 98.3087C112.034 99.0494 111.431 99.651 110.691 99.651C109.952 99.651 109.349 99.0494 109.349 98.3087C109.349 97.5681 109.952 96.9664 110.691 96.9664C111.431 96.9664 112.034 97.5681 112.034 98.3087ZM114.718 109.047C114.718 109.788 114.115 110.389 113.376 110.389C112.636 110.389 112.034 109.788 112.034 109.047C112.034 108.306 112.636 107.705 113.376 107.705C114.115 107.705 114.718 108.306 114.718 109.047ZM102.638 115.758C102.638 115.018 103.24 114.416 103.98 114.416C104.719 114.416 105.322 115.018 105.322 115.758C105.322 116.499 104.719 117.101 103.98 117.101C103.24 117.101 102.638 116.499 102.638 115.758ZM103.98 143.946C102.232 143.946 100.756 142.821 100.2 141.262H107.758C107.204 142.82 105.727 143.946 103.98 143.946ZM110.691 138.577H97.2685V135.893H110.691V138.577ZM110.691 133.208H97.2685V130.524H110.691V133.208Z" fill="white"/>
</g>
<defs>
<filter id="filter0_d_447_112" x="0" y="0" width="209" height="209" filterUnits="userSpaceOnUse" color-interpolation-filters="sRGB">
<feFlood flood-opacity="0" result="BackgroundImageFix"/>
<feColorMatrix in="SourceAlpha" type="matrix" values="0 0 0 0 0 0 0 0 0 0 0 0 0 0 0 0 0 0 127 0" result="hardAlpha"/>
<feMorphology radius="8" operator="dilate" in="SourceAlpha" result="effect1_dropShadow_447_112"/>
<feOffset/>
<feGaussianBlur stdDeviation="9.5"/>
<feComposite in2="hardAlpha" operator="out"/>
<feColorMatrix type="matrix" values="0 0 0 0 0.282813 0 0 0 0 0.754167 0 0 0 0 0.725885 0 0 0 0.36 0"/>
<feBlend mode="normal" in2="BackgroundImageFix" result="effect1_dropShadow_447_112"/>
<feBlend mode="normal" in="SourceGraphic" in2="effect1_dropShadow_447_112" result="shape"/>
</filter>
<clipPath id="clip0_447_112">
<rect width="83.2215" height="83.2215" fill="white" transform="translate(62.3691 63.4094)"/>
</clipPath>
</defs>
</svg>
