<svg width="209" height="209" viewBox="0 0 209 209" fill="none" xmlns="http://www.w3.org/2000/svg">
<g filter="url(#filter0_d_447_76)">
<circle cx="104.5" cy="104.5" r="77.5" fill="#06AA91"/>
</g>
<circle cx="104.5" cy="104.5" r="65.0168" fill="#01B89C"/>
<g clip-path="url(#clip0_447_76)">
<path d="M96.1779 123.225H63.6695C63.3246 123.225 62.9939 123.088 62.75 122.844C62.5062 122.6 62.3691 122.269 62.3691 121.924V64.7097C62.3691 64.3648 62.5062 64.034 62.75 63.7902C62.9938 63.5464 63.3246 63.4093 63.6695 63.4093H144.29C144.635 63.4093 144.966 63.5464 145.21 63.7902C145.454 64.034 145.591 64.3648 145.591 64.7097V73.812H142.99V66.01H64.9698V120.624H96.1779L96.1779 123.225Z" fill="white"/>
<path d="M63.6695 112.822H96.1779V115.423H63.6695V112.822Z" fill="white"/>
<path d="M89.7137 132.012L92.3154 121.61L94.8384 122.24L92.2366 132.643L89.7137 132.012Z" fill="white"/>
<path d="M96.1779 138.829H87.0755C86.3858 138.829 85.7243 138.555 85.2366 138.067C84.7487 137.579 84.4749 136.918 84.4749 136.228V133.627C84.4749 132.938 84.7488 132.276 85.2366 131.789C85.7243 131.301 86.3858 131.027 87.0755 131.027H96.1779V133.627H87.0755V136.228H96.1779V138.829Z" fill="white"/>
<path d="M141.693 146.631H102.683C101.648 146.631 100.656 146.22 99.9247 145.488C99.193 144.757 98.782 143.764 98.782 142.73V92.0167H101.383V133.627H144.294C144.639 133.627 144.969 133.765 145.213 134.008C145.457 134.252 145.594 134.583 145.594 134.928V142.73C145.594 143.764 145.183 144.757 144.451 145.488C143.72 146.22 142.728 146.631 141.693 146.631ZM101.383 136.228V142.73C101.383 143.075 101.52 143.405 101.764 143.649C102.007 143.893 102.338 144.03 102.683 144.03H141.693C142.038 144.03 142.369 143.893 142.613 143.649C142.856 143.405 142.993 143.075 142.993 142.73V136.228H101.383Z" fill="white"/>
<path d="M145.591 134.924H142.99V89.4126H100.079C99.7341 89.4126 99.4033 89.2755 99.1595 89.0317C98.9157 88.7879 98.7786 88.4571 98.7786 88.1122V80.3102C98.7786 79.2756 99.1895 78.2833 99.9213 77.5519C100.653 76.8202 101.645 76.4092 102.68 76.4092H141.69C142.724 76.4092 143.717 76.8202 144.448 77.5519C145.18 78.2834 145.591 79.2756 145.591 80.3102V84.2112H142.99V80.3102C142.99 79.9654 142.853 79.6346 142.609 79.3908C142.365 79.147 142.034 79.0099 141.69 79.0099H102.68C102.335 79.0099 102.004 79.147 101.76 79.3908C101.516 79.6346 101.379 79.9654 101.379 80.3102V86.8119H144.29C144.635 86.8119 144.966 86.949 145.21 87.1928C145.454 87.4366 145.591 87.7674 145.591 88.1123L145.591 134.924Z" fill="white"/>
<path d="M118.284 81.614H128.686V84.2147H118.284V81.614Z" fill="white"/>
<path d="M118.284 138.829H128.686V141.43H118.284V138.829Z" fill="white"/>
<path d="M131.287 81.614H133.888V84.2147H131.287V81.614Z" fill="white"/>
<path d="M124.582 128.877H119.995C119.705 128.878 119.425 128.768 119.212 128.57C118.999 128.373 118.869 128.102 118.849 127.812L118.56 123.717C117.819 123.487 117.1 123.19 116.413 122.827L113.309 125.516C113.091 125.706 112.808 125.806 112.519 125.795C112.229 125.785 111.954 125.666 111.749 125.461L108.505 122.218C108.301 122.012 108.181 121.737 108.171 121.448C108.161 121.159 108.261 120.876 108.45 120.657L111.139 117.553C110.777 116.866 110.479 116.148 110.249 115.407L106.155 115.118C105.865 115.097 105.594 114.967 105.396 114.754C105.198 114.541 105.089 114.262 105.09 113.971V109.385C105.089 109.094 105.198 108.814 105.396 108.601C105.594 108.388 105.865 108.259 106.155 108.238L110.249 107.947C110.479 107.205 110.776 106.487 111.139 105.8L108.45 102.696C108.261 102.477 108.161 102.195 108.171 101.905C108.181 101.616 108.301 101.341 108.505 101.136L111.749 97.8922C111.954 97.6875 112.229 97.5681 112.519 97.558C112.808 97.5478 113.091 97.6474 113.309 97.837L116.413 100.526C117.1 100.164 117.819 99.8661 118.56 99.636L118.849 95.5438C118.869 95.2541 118.999 94.9829 119.212 94.7852C119.425 94.5876 119.705 94.478 119.995 94.4787H124.582C124.872 94.478 125.152 94.5876 125.365 94.7852C125.578 94.983 125.708 95.2541 125.728 95.5438L126.02 99.6384C126.761 99.8682 127.48 100.166 128.166 100.528L131.27 97.8394C131.489 97.6497 131.772 97.5499 132.061 97.5602C132.351 97.5704 132.626 97.6899 132.831 97.8944L136.074 101.138C136.279 101.343 136.398 101.618 136.408 101.908C136.419 102.197 136.319 102.48 136.129 102.699L133.441 105.803C133.803 106.489 134.101 107.207 134.33 107.949L138.423 108.238C138.712 108.259 138.983 108.388 139.181 108.601C139.379 108.814 139.488 109.094 139.488 109.385V113.971C139.488 114.261 139.379 114.541 139.181 114.754C138.983 114.967 138.712 115.097 138.423 115.118L134.328 115.409C134.098 116.15 133.8 116.869 133.438 117.555L136.127 120.659C136.317 120.878 136.417 121.161 136.406 121.45C136.396 121.74 136.277 122.015 136.072 122.22L132.828 125.463C132.623 125.668 132.348 125.788 132.059 125.798C131.769 125.808 131.487 125.708 131.268 125.519L128.164 122.83C127.477 123.192 126.759 123.49 126.018 123.72L125.728 127.812C125.708 128.102 125.578 128.373 125.365 128.57C125.152 128.768 124.872 128.878 124.582 128.877ZM121.063 126.584H123.514L123.788 122.744C123.806 122.501 123.901 122.269 124.059 122.084C124.217 121.898 124.431 121.768 124.668 121.712C125.739 121.456 126.762 121.031 127.698 120.451C127.906 120.322 128.149 120.264 128.393 120.283C128.636 120.303 128.867 120.4 129.051 120.559L131.962 123.082L133.695 121.349L131.172 118.438C131.013 118.254 130.916 118.023 130.896 117.78C130.877 117.536 130.935 117.293 131.063 117.085C131.644 116.149 132.07 115.126 132.325 114.055C132.381 113.817 132.511 113.604 132.697 113.446C132.883 113.288 133.114 113.193 133.357 113.175L137.194 112.904V110.452L133.355 110.178C133.111 110.16 132.88 110.065 132.694 109.907C132.509 109.748 132.378 109.535 132.323 109.297C132.068 108.227 131.642 107.204 131.061 106.268C130.933 106.06 130.875 105.817 130.894 105.574C130.914 105.331 131.01 105.1 131.17 104.915L133.693 102.004L131.96 100.272L129.049 102.794C128.865 102.955 128.635 103.053 128.391 103.073C128.148 103.094 127.904 103.036 127.696 102.909C126.76 102.329 125.737 101.903 124.665 101.648C124.428 101.591 124.215 101.461 124.057 101.275C123.899 101.09 123.804 100.859 123.786 100.616L123.514 96.7721H121.063L120.789 100.612C120.771 100.855 120.676 101.086 120.518 101.272C120.36 101.458 120.147 101.588 119.909 101.644C118.838 101.899 117.815 102.325 116.879 102.905C116.67 103.033 116.427 103.09 116.184 103.07C115.94 103.049 115.71 102.951 115.526 102.791L112.615 100.268L110.882 102.001L113.405 104.912C113.565 105.096 113.661 105.327 113.681 105.57C113.701 105.814 113.642 106.057 113.514 106.265C112.933 107.2 112.507 108.223 112.253 109.294C112.196 109.532 112.066 109.745 111.881 109.903C111.695 110.062 111.464 110.157 111.221 110.175L107.383 110.452V112.904L111.223 113.178C111.466 113.195 111.697 113.29 111.883 113.448C112.068 113.607 112.199 113.82 112.255 114.057C112.51 115.128 112.936 116.152 113.516 117.087C113.644 117.295 113.703 117.538 113.683 117.782C113.664 118.025 113.567 118.256 113.407 118.44L110.884 121.352L112.617 123.084L115.528 120.562C115.713 120.402 115.944 120.305 116.187 120.285C116.43 120.266 116.674 120.325 116.881 120.453C117.817 121.033 118.84 121.459 119.912 121.714C120.149 121.77 120.362 121.901 120.52 122.086C120.678 122.272 120.773 122.503 120.791 122.746L121.063 126.584Z" fill="white"/>
<path d="M122.011 118.336C120.172 118.336 118.408 117.605 117.107 116.304C115.807 115.004 115.076 113.24 115.076 111.4C115.076 109.561 115.807 107.797 117.107 106.496C118.408 105.196 120.172 104.465 122.011 104.465C123.85 104.465 125.615 105.196 126.915 106.496C128.216 107.797 128.946 109.561 128.946 111.4C128.944 113.239 128.213 115.002 126.913 116.302C125.613 117.603 123.85 118.334 122.011 118.336ZM122.011 106.777C120.785 106.777 119.609 107.264 118.742 108.131C117.875 108.998 117.388 110.174 117.388 111.4C117.388 112.627 117.875 113.803 118.742 114.67C119.609 115.537 120.785 116.024 122.011 116.024C123.237 116.024 124.414 115.537 125.28 114.67C126.147 113.803 126.635 112.627 126.635 111.4C126.635 110.174 126.148 108.998 125.28 108.131C124.414 107.264 123.237 106.777 122.011 106.777Z" fill="white"/>
<path d="M88.4452 88.3758H72.9106C72.6163 88.3758 72.334 88.2588 72.126 88.0508C71.9179 87.8427 71.8009 87.5604 71.8009 87.2662V76.17C71.8009 75.8757 71.9179 75.5934 72.126 75.3854C72.334 75.1773 72.6163 75.0604 72.9106 75.0604H88.4452C88.7395 75.0604 89.0218 75.1773 89.2298 75.3854C89.4379 75.5934 89.5549 75.8757 89.5549 76.17V87.2662C89.5549 87.5604 89.4379 87.8427 89.2298 88.0508C89.0218 88.2588 88.7395 88.3758 88.4452 88.3758ZM74.0202 86.1566H87.3356V77.2796H74.0202V86.1566Z" fill="white"/>
<path d="M82.3946 77.2796L78.1689 72.955H75.2209C74.9185 72.955 74.6286 73.078 74.4148 73.2967C74.2011 73.5154 74.0809 73.8122 74.0809 74.1216V76.4547H71.8009V74.1216C71.8009 73.1934 72.1612 72.3032 72.8027 71.647C73.444 70.9906 74.3139 70.6219 75.2209 70.6219H78.6408C78.9431 70.6219 79.2331 70.7449 79.4469 70.9636L84.0068 75.6299L82.3946 77.2796Z" fill="white"/>
<path d="M88.4452 108.349H72.9106C72.6163 108.349 72.334 108.232 72.126 108.024C71.9179 107.816 71.8009 107.534 71.8009 107.239V96.1431C71.8009 95.8488 71.9179 95.5666 72.126 95.3585C72.334 95.1505 72.6163 95.0335 72.9106 95.0335H88.4452C88.7395 95.0335 89.0218 95.1505 89.2298 95.3585C89.4379 95.5666 89.5549 95.8488 89.5549 96.1431V107.239C89.5549 107.534 89.4379 107.816 89.2298 108.024C89.0218 108.232 88.7395 108.349 88.4452 108.349ZM74.0202 106.13H87.3356V97.2528H74.0202V106.13Z" fill="white"/>
<path d="M82.3946 96.6979L78.1689 92.7337H75.2209C74.9185 92.7337 74.6286 92.8465 74.4148 93.047C74.2011 93.2475 74.0809 93.5195 74.0809 93.8031V95.9418H71.8009V93.8031C71.8009 92.9523 72.1612 92.1362 72.8027 91.5347C73.444 90.933 74.3139 90.595 75.2209 90.595H78.6408C78.9431 90.595 79.2331 90.7078 79.4469 90.9083L84.0068 95.1857L82.3946 96.6979Z" fill="white"/>
<path d="M129.987 69.911H140.389V72.5117H129.987V69.911Z" fill="white"/>
<path d="M124.785 69.911H127.386V72.5117H124.785V69.911Z" fill="white"/>
<path d="M119.584 69.911H122.185V72.5117H119.584V69.911Z" fill="white"/>
<path d="M114.383 69.911H116.983V72.5117H114.383V69.911Z" fill="white"/>
</g>
<defs>
<filter id="filter0_d_447_76" x="0" y="0" width="209" height="209" filterUnits="userSpaceOnUse" color-interpolation-filters="sRGB">
<feFlood flood-opacity="0" result="BackgroundImageFix"/>
<feColorMatrix in="SourceAlpha" type="matrix" values="0 0 0 0 0 0 0 0 0 0 0 0 0 0 0 0 0 0 127 0" result="hardAlpha"/>
<feMorphology radius="8" operator="dilate" in="SourceAlpha" result="effect1_dropShadow_447_76"/>
<feOffset/>
<feGaussianBlur stdDeviation="9.5"/>
<feComposite in2="hardAlpha" operator="out"/>
<feColorMatrix type="matrix" values="0 0 0 0 0.282813 0 0 0 0 0.754167 0 0 0 0 0.725885 0 0 0 0.36 0"/>
<feBlend mode="normal" in2="BackgroundImageFix" result="effect1_dropShadow_447_76"/>
<feBlend mode="normal" in="SourceGraphic" in2="effect1_dropShadow_447_76" result="shape"/>
</filter>
<clipPath id="clip0_447_76">
<rect width="83.2215" height="83.2215" fill="white" transform="translate(62.3691 63.4094)"/>
</clipPath>
</defs>
</svg>
