<svg width="209" height="209" viewBox="0 0 209 209" fill="none" xmlns="http://www.w3.org/2000/svg">
<g filter="url(#filter0_d_447_94)">
<circle cx="104.5" cy="104.5" r="77.5" fill="#06AA91"/>
</g>
<circle cx="104.5" cy="104.5" r="65.0168" fill="#01B89C"/>
<g clip-path="url(#clip0_447_94)">
<path d="M64.2181 131.347L66.0683 129.28C65.4801 128.754 65.1438 128.002 65.1432 127.212V74.5053C65.1438 73.7697 65.4367 73.0651 65.9569 72.545C66.477 72.0248 67.1817 71.7319 67.9172 71.7313H102.593V68.9573H67.9172C66.446 68.9591 65.036 69.5443 63.9958 70.584C62.9562 71.6242 62.371 73.0342 62.3691 74.5054V127.212C62.3704 128.791 63.0429 130.294 64.2181 131.347Z" fill="white"/>
<path d="M74.8524 78.6667H102.593V75.8927H74.8524C73.3811 75.8945 71.9712 76.4797 70.931 77.5194C69.8913 78.5597 69.3062 79.9696 69.3043 81.4408V134.148C69.3055 135.295 69.6616 136.414 70.3241 137.35C70.986 138.287 71.9216 138.996 73.0027 139.38L73.9278 136.764C73.3872 136.573 72.9191 136.218 72.5879 135.749C72.2572 135.281 72.0789 134.721 72.0783 134.148V81.4408C72.0789 80.7051 72.3718 80.0005 72.8919 79.4804C73.412 78.9603 74.1168 78.6674 74.8524 78.6667Z" fill="white"/>
<path d="M126.172 105.02H128.946V120.278H126.172V105.02Z" fill="white"/>
<path d="M87.3356 103.633C86.2322 103.633 85.1732 104.072 84.3932 104.852C83.6131 105.632 83.1746 106.691 83.1746 107.794C83.1746 108.898 83.613 109.957 84.3932 110.737C85.1734 111.517 86.2323 111.955 87.3356 111.955C88.4389 111.955 89.4979 111.517 90.278 110.737C91.058 109.956 91.4966 108.898 91.4966 107.794C91.4953 106.691 91.0563 105.633 90.2767 104.853C89.4965 104.073 88.4389 103.634 87.3355 103.633L87.3356 103.633ZM87.3356 109.181C86.7746 109.181 86.2687 108.843 86.0544 108.325C85.8396 107.807 85.9578 107.21 86.3548 106.814C86.7517 106.417 87.348 106.298 87.8662 106.513C88.3845 106.727 88.7226 107.233 88.7226 107.794C88.722 108.56 88.1015 109.181 87.3356 109.181Z" fill="white"/>
<path d="M94.2707 103.633H116.463V106.407H94.2707V103.633Z" fill="white"/>
<path d="M94.2707 109.181H122.011V111.955H94.2707V109.181Z" fill="white"/>
<path d="M87.3356 117.504C86.2322 117.504 85.1732 117.942 84.3932 118.722C83.6131 119.502 83.1746 120.561 83.1746 121.665C83.1746 122.768 83.613 123.827 84.3932 124.607C85.1734 125.387 86.2323 125.826 87.3356 125.826C88.4389 125.826 89.4979 125.387 90.278 124.607C91.058 123.827 91.4966 122.768 91.4966 121.665C91.4953 120.561 91.0563 119.504 90.2767 118.723C89.4965 117.944 88.4389 117.505 87.3355 117.503L87.3356 117.504ZM87.3356 123.052C86.7746 123.052 86.2687 122.714 86.0544 122.195C85.8396 121.677 85.9578 121.081 86.3548 120.684C86.7517 120.287 87.348 120.169 87.8662 120.384C88.3845 120.598 88.7226 121.104 88.7226 121.665C88.722 122.431 88.1015 123.051 87.3356 123.052Z" fill="white"/>
<path d="M94.2707 117.504H122.011V120.278H94.2707V117.504Z" fill="white"/>
<path d="M87.3356 131.374C86.2322 131.374 85.1732 131.812 84.3932 132.592C83.6131 133.373 83.1746 134.432 83.1746 135.535C83.1746 136.638 83.613 137.697 84.3932 138.477C85.1734 139.257 86.2323 139.696 87.3356 139.696C88.4389 139.696 89.4979 139.257 90.278 138.477C91.058 137.697 91.4966 136.638 91.4966 135.535C91.4953 134.431 91.0563 133.374 90.2767 132.594C89.4965 131.814 88.4389 131.375 87.3355 131.374L87.3356 131.374ZM87.3356 136.922C86.7746 136.922 86.2687 136.584 86.0544 136.066C85.8396 135.547 85.9578 134.951 86.3548 134.554C86.7517 134.157 87.348 134.039 87.8662 134.254C88.3845 134.468 88.7226 134.974 88.7226 135.535C88.722 136.301 88.1015 136.921 87.3356 136.922Z" fill="white"/>
<path d="M94.2707 136.922H119.237V139.696H94.2707V136.922Z" fill="white"/>
<path d="M94.2707 89.763H102.593V92.537H94.2707V89.763Z" fill="white"/>
<path d="M94.2707 95.3111H102.593V98.0852H94.2707V95.3111Z" fill="white"/>
<path d="M138.655 63.4094H112.302C110.464 63.4113 108.701 64.1426 107.4 65.4429C106.1 66.7432 105.369 68.5061 105.367 70.3446V91.15C105.369 92.9885 106.1 94.7514 107.4 96.0517C108.701 97.352 110.464 98.0833 112.302 98.0852H119.237V105.02C119.237 105.562 119.552 106.054 120.045 106.28C120.537 106.507 121.116 106.426 121.527 106.074L130.847 98.0851H138.656C140.494 98.0832 142.257 97.3519 143.557 96.0516C144.857 94.7513 145.589 92.9884 145.591 91.1499V70.3445C145.589 68.506 144.857 66.7431 143.557 65.4428C142.257 64.1425 140.494 63.4113 138.655 63.4094ZM142.817 91.15C142.815 92.2534 142.376 93.3111 141.597 94.0913C140.816 94.8709 139.759 95.3099 138.655 95.3112H130.333C130.002 95.3112 129.682 95.4294 129.43 95.6449L122.011 102.005V96.6981C122.011 96.3303 121.865 95.9773 121.605 95.7173C121.345 95.4572 120.992 95.3111 120.624 95.3111H112.302C111.198 95.3098 110.141 94.8708 109.361 94.0912C108.581 93.311 108.142 92.2534 108.141 91.1499V70.3445C108.142 69.2411 108.581 68.1834 109.361 67.4032C110.141 66.6236 111.198 66.1846 112.302 66.1834H138.655C139.759 66.1846 140.816 66.6236 141.597 67.4032C142.376 68.1834 142.815 69.2411 142.816 70.3445L142.817 91.15Z" fill="white"/>
<path d="M125.429 68.9575H124.14H124.141C122.473 68.9594 120.874 69.6226 119.694 70.8022C118.515 71.9818 117.852 73.5806 117.85 75.2488V77.2797H120.624V75.2488C120.625 74.3163 120.996 73.4222 121.655 72.7626C122.314 72.1038 123.208 71.7329 124.141 71.7316H125.429H125.429C126.362 71.7316 127.256 72.1019 127.916 72.7614C128.576 73.4214 128.946 74.3156 128.946 75.2487C128.946 76.1812 128.576 77.0753 127.916 77.7355L125.24 80.4111C124.057 81.5882 123.393 83.1901 123.398 84.859V86.9891H126.172V84.859C126.169 83.9258 126.54 83.0305 127.201 82.3721L129.877 79.6965C131.057 78.5169 131.72 76.9169 131.72 75.2487C131.72 73.5799 131.057 71.9799 129.877 70.8003C128.697 69.6201 127.097 68.9575 125.429 68.9575Z" fill="white"/>
<path d="M123.398 89.763H126.172V92.537H123.398V89.763Z" fill="white"/>
<path d="M126.172 105.02H128.946V120.278H126.172V105.02Z" fill="white"/>
<path d="M126.014 142.007C125.822 142.548 125.468 143.016 124.999 143.347C124.531 143.678 123.971 143.856 123.398 143.857H81.7868C81.0512 143.856 80.3465 143.563 79.8264 143.043C79.3063 142.523 79.0134 141.818 79.0128 141.083V98.0849H85.9479C87.4191 98.083 88.8291 97.4979 89.8693 96.4582C90.9089 95.4179 91.4941 94.0079 91.496 92.5367V85.6016H102.592V82.8275H90.109C89.7412 82.8275 89.3882 82.9737 89.1281 83.2337L76.6449 95.717C76.3849 95.9771 76.2387 96.33 76.2387 96.6978V141.083C76.2406 142.554 76.8257 143.964 77.8654 145.004C78.9057 146.044 80.3156 146.629 81.7868 146.631H123.398C124.545 146.63 125.663 146.274 126.6 145.611C127.536 144.949 128.245 144.014 128.629 142.932L126.014 142.007ZM85.9486 95.3111H80.9751L88.7226 87.5636V92.537C88.722 93.2727 88.4291 93.9773 87.909 94.4974C87.3888 95.0175 86.6841 95.3105 85.9486 95.3111Z" fill="white"/>
<path d="M140.042 123.052H102.593C102.341 123.052 102.095 123.12 101.88 123.25V123.249L94.945 127.41C94.527 127.661 94.2713 128.112 94.2713 128.6C94.2713 129.087 94.527 129.539 94.945 129.789L101.88 133.95V133.949C102.095 134.079 102.341 134.148 102.593 134.148H137.268V135.535C137.268 136.301 136.647 136.921 135.881 136.922H122.011V139.696H135.881C136.985 139.695 138.042 139.256 138.823 138.476C139.602 137.696 140.041 136.638 140.043 135.535V134.148C142.025 134.148 143.856 133.09 144.847 131.374C145.838 129.657 145.838 127.542 144.847 125.826C143.856 124.109 142.024 123.052 140.042 123.052ZM101.206 126.888V130.311L98.3538 128.6L101.206 126.888ZM103.98 125.826H116.463V131.374H103.98V125.826ZM119.237 131.374V125.826H137.268V131.374H119.237ZM140.042 131.374V125.826C141.034 125.826 141.95 126.355 142.445 127.213C142.94 128.071 142.94 129.129 142.445 129.987C141.95 130.845 141.034 131.374 140.042 131.374Z" fill="white"/>
</g>
<defs>
<filter id="filter0_d_447_94" x="0" y="0" width="209" height="209" filterUnits="userSpaceOnUse" color-interpolation-filters="sRGB">
<feFlood flood-opacity="0" result="BackgroundImageFix"/>
<feColorMatrix in="SourceAlpha" type="matrix" values="0 0 0 0 0 0 0 0 0 0 0 0 0 0 0 0 0 0 127 0" result="hardAlpha"/>
<feMorphology radius="8" operator="dilate" in="SourceAlpha" result="effect1_dropShadow_447_94"/>
<feOffset/>
<feGaussianBlur stdDeviation="9.5"/>
<feComposite in2="hardAlpha" operator="out"/>
<feColorMatrix type="matrix" values="0 0 0 0 0.282813 0 0 0 0 0.754167 0 0 0 0 0.725885 0 0 0 0.36 0"/>
<feBlend mode="normal" in2="BackgroundImageFix" result="effect1_dropShadow_447_94"/>
<feBlend mode="normal" in="SourceGraphic" in2="effect1_dropShadow_447_94" result="shape"/>
</filter>
<clipPath id="clip0_447_94">
<rect width="83.2215" height="83.2215" fill="white" transform="translate(62.3691 63.4094)"/>
</clipPath>
</defs>
</svg>
