<svg width="209" height="209" viewBox="0 0 209 209" fill="none" xmlns="http://www.w3.org/2000/svg">
<g filter="url(#filter0_d_447_121)">
<circle cx="104.5" cy="104.5" r="77.5" fill="#06AA91"/>
</g>
<circle cx="104.5" cy="104.5" r="65.0168" fill="#01B89C"/>
<path d="M135.42 103.448V87.7292C135.42 87.3124 135.254 86.9124 134.96 86.6176C134.664 86.3229 134.265 86.1571 133.848 86.1571H74.1123C73.2444 86.1571 72.5407 86.8608 72.5407 87.7292V109.736C72.5407 110.153 72.706 110.553 73.0007 110.848C73.296 111.143 73.6955 111.308 74.1123 111.308H105.553V108.667H75.1817V88.7975H132.779V103.448L135.42 103.448Z" fill="white"/>
<path d="M72.5412 128.599C72.5412 129.016 72.7065 129.416 73.0013 129.711C73.2965 130.006 73.696 130.171 74.1129 130.171H99.2648V127.53H75.1823V117.092H102.408V114.452H74.1129C73.245 114.452 72.5413 115.155 72.5413 116.024L72.5412 128.599Z" fill="white"/>
<path d="M136.991 67.2931H70.9688C69.7183 67.2931 68.5187 67.7899 67.634 68.6742C66.7498 69.5589 66.2529 70.7584 66.2529 72.009V81.4407C66.2529 81.8575 66.4187 82.2575 66.7135 82.5523C67.0082 82.847 67.4082 83.0128 67.8251 83.0128H135.419C135.419 83.0128 135.419 82.3086 135.419 81.4407C135.419 80.5728 135.419 80.3716 135.419 80.3716H68.8931V71.5059C68.8931 70.638 70.1004 69.9338 70.9683 69.9338H137.494C137.911 69.9338 138.311 70.6026 138.606 70.8974C138.9 71.1921 139.066 71.5921 139.066 72.009V106.592H141.707V72.009C141.707 70.7584 141.21 69.5589 140.326 68.6742C139.441 67.7899 138.241 67.2931 136.991 67.2931H136.991Z" fill="white"/>
<path d="M108.696 140.107H70.4658C69.5979 140.107 68.8937 138.899 68.8937 138.031V87.7292H66.2529V138.031C66.2529 139.282 66.7498 140.481 67.634 141.366C68.5188 142.25 69.7183 142.747 70.9688 142.747H108.696V140.107Z" fill="white"/>
<path fill-rule="evenodd" clip-rule="evenodd" d="M118.912 107.559C119.03 106.961 119.554 106.529 120.164 106.529H127.533C128.142 106.529 128.665 106.959 128.784 107.556L128.989 108.584L128.99 108.592L129.63 111.712C130.515 112.107 131.358 112.591 132.146 113.157L135.318 112.097C135.327 112.094 135.335 112.091 135.344 112.088L136.367 111.771C136.935 111.594 137.549 111.833 137.848 112.347L138.377 113.256L140.993 117.635L141.001 117.647L141.534 118.562C141.841 119.09 141.731 119.763 141.27 120.165L140.491 120.845L140.479 120.856L138.085 122.893C138.158 123.348 138.225 123.861 138.225 124.386C138.225 124.913 138.158 125.426 138.085 125.88L140.479 127.918L140.491 127.928L141.27 128.609C141.731 129.011 141.841 129.683 141.534 130.212L141.001 131.127L140.994 131.138L138.377 135.52L137.848 136.429C137.548 136.943 136.933 137.182 136.365 137.004L135.342 136.684C135.334 136.682 135.326 136.679 135.318 136.677L132.146 135.617C131.358 136.182 130.515 136.666 129.63 137.062L128.99 140.182L128.989 140.189L128.784 141.218C128.665 141.814 128.142 142.244 127.533 142.244H120.164C119.554 142.244 119.03 141.813 118.912 141.215L118.711 140.19L118.068 137.064C117.167 136.664 116.33 136.172 115.554 135.616L112.379 136.677C112.371 136.679 112.363 136.682 112.355 136.684L111.332 137.004C110.763 137.182 110.146 136.942 109.847 136.426L109.321 135.516L106.704 131.139L106.695 131.124L106.164 130.209C105.858 129.682 105.969 129.012 106.427 128.61L107.204 127.93L107.218 127.917L109.613 125.882C109.54 125.428 109.472 124.913 109.472 124.388C109.472 123.863 109.54 123.349 109.613 122.896L107.218 120.858L107.204 120.846L106.427 120.166C105.969 119.765 105.858 119.095 106.164 118.568L106.694 117.65L106.703 117.635L109.322 113.254L109.849 112.348C110.147 111.835 110.76 111.595 111.327 111.77L112.35 112.085C112.36 112.088 112.37 112.091 112.38 112.094L115.552 113.156C116.339 112.591 117.182 112.107 118.067 111.712L118.709 108.589L118.912 107.559ZM121.213 109.08L121.212 109.087L121.209 109.098L120.43 112.886C120.343 113.31 120.046 113.66 119.643 113.817C118.539 114.247 117.505 114.84 116.577 115.578C116.239 115.847 115.788 115.926 115.379 115.789L111.584 114.519L111.544 114.506L111.523 114.543L111.516 114.556L108.898 118.936L108.897 118.937L111.818 121.423C112.158 121.712 112.322 122.158 112.251 122.599C112.227 122.745 112.204 122.881 112.182 123.011C112.092 123.535 112.023 123.942 112.023 124.388C112.023 124.835 112.093 125.245 112.182 125.771C112.204 125.9 112.227 126.035 112.251 126.179C112.322 126.62 112.158 127.066 111.818 127.356L108.898 129.838L111.515 134.215L111.525 134.231L111.544 134.265L111.582 134.253L115.379 132.984C115.786 132.848 116.234 132.926 116.571 133.191C117.506 133.924 118.525 134.529 119.636 134.954C120.043 135.109 120.342 135.461 120.43 135.888L121.209 139.676L121.212 139.687L121.213 139.693H126.486L126.488 139.684L126.49 139.677L127.267 135.889C127.354 135.464 127.65 135.113 128.054 134.956C129.158 134.527 130.192 133.933 131.119 133.196C131.457 132.927 131.908 132.848 132.317 132.984L136.115 134.253L136.155 134.266L136.176 134.23L136.183 134.218L138.799 129.838L135.879 127.353C135.537 127.062 135.374 126.614 135.447 126.173C135.468 126.048 135.488 125.93 135.507 125.817C135.601 125.272 135.674 124.847 135.674 124.386C135.674 123.927 135.601 123.501 135.507 122.954C135.488 122.842 135.468 122.725 135.447 122.601C135.374 122.159 135.537 121.711 135.879 121.421L138.799 118.935L136.184 114.558L136.176 114.546L136.154 114.508L136.113 114.521L132.317 115.789C131.908 115.926 131.457 115.846 131.119 115.578C130.192 114.84 129.158 114.247 128.054 113.817C127.65 113.66 127.354 113.309 127.267 112.885L126.49 109.097L126.488 109.09L126.486 109.08H121.213ZM123.85 120.92C122.932 120.92 122.051 121.285 121.402 121.935C120.752 122.585 120.387 123.466 120.387 124.386C120.387 125.305 120.752 126.186 121.402 126.836C122.051 127.486 122.932 127.851 123.85 127.851C124.768 127.851 125.648 127.486 126.297 126.836C126.947 126.186 127.312 125.305 127.312 124.386C127.312 123.466 126.947 122.585 126.297 121.935C125.648 121.285 124.768 120.92 123.85 120.92ZM119.597 120.132C120.725 119.003 122.255 118.369 123.85 118.369C125.445 118.369 126.974 119.003 128.102 120.132C129.229 121.26 129.863 122.79 129.863 124.386C129.863 125.981 129.229 127.511 128.102 128.639C126.974 129.768 125.445 130.402 123.85 130.402C122.255 130.402 120.725 129.768 119.597 128.639C118.47 127.511 117.836 125.981 117.836 124.386C117.836 122.79 118.47 121.26 119.597 120.132Z" fill="white"/>
<path d="M72.5407 74.084H75.0558V76.5991H72.5407V74.084Z" fill="white"/>
<path d="M77.571 74.084H80.0861V76.5991H77.571V74.084Z" fill="white"/>
<path d="M82.6012 74.084H85.1163V76.5991H82.6012V74.084Z" fill="white"/>
<defs>
<filter id="filter0_d_447_121" x="0" y="0" width="209" height="209" filterUnits="userSpaceOnUse" color-interpolation-filters="sRGB">
<feFlood flood-opacity="0" result="BackgroundImageFix"/>
<feColorMatrix in="SourceAlpha" type="matrix" values="0 0 0 0 0 0 0 0 0 0 0 0 0 0 0 0 0 0 127 0" result="hardAlpha"/>
<feMorphology radius="8" operator="dilate" in="SourceAlpha" result="effect1_dropShadow_447_121"/>
<feOffset/>
<feGaussianBlur stdDeviation="9.5"/>
<feComposite in2="hardAlpha" operator="out"/>
<feColorMatrix type="matrix" values="0 0 0 0 0.282813 0 0 0 0 0.754167 0 0 0 0 0.725885 0 0 0 0.36 0"/>
<feBlend mode="normal" in2="BackgroundImageFix" result="effect1_dropShadow_447_121"/>
<feBlend mode="normal" in="SourceGraphic" in2="effect1_dropShadow_447_121" result="shape"/>
</filter>
</defs>
</svg>
