<svg width="209" height="209" viewBox="0 0 209 209" fill="none" xmlns="http://www.w3.org/2000/svg">
<g filter="url(#filter0_d_447_31)">
<circle cx="104.5" cy="104.5" r="77.5" fill="#06AA91"/>
</g>
<circle cx="104.5" cy="104.5" r="65.0168" fill="#01B89C"/>
<g clip-path="url(#clip0_447_31)">
<path d="M144.249 83.5606H141.059C142.306 78.7375 141.252 73.6087 138.202 69.6693C135.152 65.7298 130.451 63.4239 125.469 63.4239C120.487 63.4239 115.786 65.7297 112.737 69.6693C109.687 73.6089 108.632 78.7375 109.88 83.5606H93.8122L76.0224 65.7705C74.5271 64.2632 72.4926 63.4137 70.3697 63.4094C68.2465 63.4047 66.2091 64.2463 64.7073 65.7482C63.206 67.2495 62.365 69.2869 62.3692 71.4107C62.3739 73.5339 63.224 75.5676 64.7312 77.0629L65.3231 77.6536C63.4475 79.7438 62.4045 82.4504 62.3925 85.2595V135.895C62.3895 138.743 63.52 141.476 65.5334 143.49C67.5474 145.504 70.2797 146.634 73.1278 146.631H144.249C144.605 146.631 144.946 146.49 145.198 146.238C145.449 145.986 145.591 145.645 145.591 145.289V84.9022C145.591 84.5463 145.449 84.2048 145.198 83.9532C144.946 83.7016 144.605 83.5602 144.249 83.5602L144.249 83.5606ZM112.133 77.9461C112.667 73.3626 115.517 69.3745 119.681 67.3868C123.844 65.3984 128.738 65.689 132.638 68.156C136.536 70.623 138.895 74.9207 138.882 79.5348C138.892 82.5313 137.887 85.4434 136.03 87.7954C133.646 90.7985 132.293 94.4894 132.172 98.3218H129.488V90.2702H130.83C131.898 90.2702 132.922 89.8461 133.677 89.0912C134.432 88.3364 134.856 87.3119 134.856 86.2445C134.856 85.1771 134.432 84.1525 133.677 83.3978C132.922 82.6431 131.898 82.2188 130.83 82.2188C129.763 82.2188 128.738 82.6429 127.984 83.3978C127.229 84.1526 126.805 85.1771 126.805 86.2445V87.5864H124.121V86.2445C124.121 85.1769 123.697 84.1525 122.942 83.3978C122.187 82.6431 121.163 82.2188 120.095 82.2188C119.028 82.2188 118.003 82.6429 117.248 83.3978C116.494 84.1526 116.069 85.1771 116.069 86.2445C116.069 87.3119 116.494 88.3365 117.248 89.0912C118.003 89.8459 119.028 90.2702 120.095 90.2702H121.437V98.3218H118.753C118.616 94.4506 117.238 90.7261 114.823 87.6978C112.687 84.9229 111.722 81.4232 112.133 77.9461ZM128.146 106.374C128.146 107.333 127.634 108.219 126.804 108.698C125.974 109.177 124.95 109.177 124.12 108.698C123.29 108.219 122.778 107.333 122.778 106.374H128.146ZM120.094 103.69C119.353 103.69 118.752 103.089 118.752 102.348V101.006H132.171V102.348C132.171 102.704 132.03 103.045 131.779 103.297C131.527 103.548 131.185 103.69 130.83 103.69H120.094ZM121.436 87.5866H120.094C119.552 87.5866 119.062 87.2595 118.855 86.758C118.647 86.2566 118.761 85.6797 119.145 85.2957C119.529 84.9117 120.106 84.7973 120.608 85.0051C121.109 85.2124 121.436 85.7019 121.436 86.2446V87.5866ZM126.804 98.322H124.12V90.2704H126.804V98.322ZM129.488 87.5866V86.2446C129.488 85.7019 129.815 85.2124 130.316 85.0051C130.818 84.7973 131.394 84.9117 131.779 85.2957C132.163 85.6797 132.277 86.2566 132.069 86.758C131.862 87.2595 131.372 87.5866 130.83 87.5866H129.488ZM101.99 103.03L98.2705 101.915L100.874 99.3117L101.99 103.03ZM95.3501 101.039L91.9139 100.008V96.9809H94.5977C94.9536 96.9809 95.295 96.8395 95.5466 96.5879C95.7982 96.3363 95.9396 95.9948 95.9396 95.6389V92.9551H98.9666L99.997 96.3932L95.3501 101.039ZM75.0237 83.5617L77.8231 80.7622L91.3578 94.2971H90.5712C89.8302 94.2971 89.2293 94.898 89.2293 95.639V97.7657L75.0237 83.5617ZM73.1265 81.6644L70.998 79.5359L78.4941 72.0397L80.6226 74.1682L73.1265 81.6644ZM94.5969 90.2713C93.8559 90.2713 93.255 90.8722 93.255 91.6133V92.3998L79.7204 78.8649L82.5198 76.0654L96.7254 90.2713L94.5969 90.2713ZM70.3752 66.1166C71.7818 66.113 73.1315 66.672 74.123 67.6694L76.5966 70.1424L69.1005 77.6368L66.6275 75.1638C65.6331 74.1699 65.0741 72.822 65.0741 71.4159C65.0741 70.0105 65.6331 68.662 66.6269 67.668C67.6214 66.6742 68.9692 66.116 70.3752 66.1166ZM67.2218 79.5545L81.1776 93.5105V128.795C81.0141 128.61 80.8427 128.431 80.6636 128.258C78.6262 126.227 75.8513 125.109 72.9746 125.161C69.9379 125.218 67.0671 126.559 65.0747 128.851V85.2606C65.0824 83.1626 65.8445 81.1372 67.2218 79.5545ZM142.905 143.949H73.1262C70.9707 143.949 68.9057 143.085 67.3925 141.55C65.8786 140.016 65.0442 137.938 65.0747 135.783C65.1418 133.7 65.9997 131.719 67.4735 130.245C68.9472 128.771 70.9271 127.913 73.0105 127.845H73.1262C75.2619 127.845 77.3094 128.694 78.8197 130.203C80.3293 131.714 81.1776 133.761 81.1776 135.897C81.1776 136.638 81.7784 137.239 82.5195 137.239C83.2605 137.239 83.8614 136.638 83.8614 135.897V96.1944L89.6219 101.955V101.956C89.7795 102.113 89.973 102.228 90.1856 102.292L103.605 106.318C103.73 106.355 103.859 106.374 103.99 106.374C104.414 106.374 104.813 106.174 105.066 105.834C105.32 105.494 105.397 105.053 105.275 104.647L101.25 91.228C101.186 91.0153 101.07 90.8218 100.913 90.6642L96.4938 86.2455H110.834C111.333 87.34 111.954 88.3759 112.684 89.332C114.821 91.9894 116.011 95.2838 116.067 98.6931V102.349C116.067 103.416 116.491 104.441 117.246 105.195C118.001 105.95 119.025 106.374 120.093 106.374C120.093 108.292 121.116 110.064 122.777 111.023C124.437 111.982 126.484 111.982 128.144 111.023C129.805 110.064 130.828 108.292 130.828 106.374C131.895 106.374 132.92 105.95 133.675 105.195C134.429 104.441 134.854 103.416 134.854 102.349V98.6865C134.891 95.3286 136.048 92.0793 138.14 89.453C138.914 88.4633 139.571 87.3873 140.095 86.2455H142.905L142.905 143.949Z" fill="white"/>
<path d="M114.541 131.359C114.906 130.663 115.208 129.936 115.444 129.186H117.411C117.767 129.186 118.109 129.045 118.36 128.793C118.612 128.542 118.753 128.2 118.753 127.845V122.477C118.753 122.121 118.612 121.78 118.36 121.528C118.109 121.276 117.767 121.135 117.411 121.135H115.444C115.208 120.385 114.906 119.658 114.541 118.962L115.935 117.569C116.459 117.046 116.459 116.196 115.935 115.672L112.139 111.876C111.615 111.352 110.765 111.352 110.242 111.876L108.849 113.267C108.153 112.904 107.425 112.602 106.676 112.367V110.4C106.676 110.044 106.535 109.702 106.283 109.451C106.031 109.199 105.69 109.058 105.334 109.058H99.9665C99.2255 109.058 98.6246 109.658 98.6246 110.4V112.367C97.8752 112.602 97.1479 112.904 96.4518 113.268L95.059 111.876C94.527 111.372 93.6943 111.372 93.1618 111.876L89.3655 115.672C88.8419 116.196 88.8419 117.046 89.3655 117.569L90.7583 118.962C90.3941 119.658 90.0921 120.385 89.8567 121.135H87.8894C87.1484 121.135 86.5475 121.736 86.5475 122.477V127.845C86.5475 128.2 86.6889 128.542 86.9405 128.793C87.1921 129.045 87.5336 129.186 87.8894 129.186H89.8567C90.0927 129.936 90.3947 130.663 90.7595 131.359L89.3655 132.752C88.8419 133.276 88.8419 134.125 89.3655 134.649L93.1618 138.446C93.686 138.969 94.5354 138.969 95.059 138.446L96.4518 137.053C97.1479 137.417 97.8752 137.719 98.6246 137.955V139.922C98.6246 140.278 98.766 140.619 99.0176 140.871C99.2692 141.122 99.6107 141.264 99.9665 141.264H105.334C105.69 141.264 106.031 141.122 106.283 140.871C106.535 140.619 106.676 140.278 106.676 139.922V137.955C107.425 137.719 108.153 137.417 108.849 137.052L110.242 138.446C110.774 138.949 111.606 138.949 112.139 138.446L115.935 134.649C116.459 134.125 116.459 133.276 115.935 132.752L114.541 131.359ZM113.117 127.547C112.849 128.723 112.383 129.845 111.739 130.865C111.404 131.395 111.481 132.087 111.924 132.531L113.094 133.701L111.197 135.598L110.027 134.428H110.027C109.584 133.985 108.893 133.908 108.363 134.242C107.342 134.886 106.219 135.352 105.043 135.62C104.433 135.759 103.999 136.302 103.999 136.928V138.58H101.308V136.928C101.308 136.302 100.875 135.759 100.264 135.62C99.0877 135.352 97.9651 134.886 96.9448 134.242C96.4146 133.908 95.7239 133.985 95.2805 134.428L94.1106 135.598L92.2133 133.701L93.3833 132.531C93.8266 132.087 93.9033 131.395 93.5684 130.865C92.925 129.845 92.4589 128.723 92.19 127.547C92.051 126.936 91.5082 126.503 90.8816 126.503H89.2311V123.819H90.8816C91.5082 123.819 92.051 123.386 92.19 122.775C92.4589 121.599 92.925 120.477 93.5684 119.456C93.9033 118.926 93.8266 118.234 93.3833 117.791L92.2133 116.621L94.1106 114.724L95.2805 115.894C95.7238 116.336 96.4145 116.414 96.9448 116.08C97.965 115.435 99.0877 114.969 100.264 114.702C100.875 114.563 101.309 114.019 101.308 113.392V111.741H103.992V113.392C103.992 114.019 104.425 114.563 105.036 114.702C106.213 114.969 107.336 115.435 108.356 116.08C108.886 116.414 109.577 116.336 110.02 115.894L111.19 114.724L113.087 116.621L111.917 117.791C111.474 118.234 111.397 118.926 111.732 119.456C112.378 120.476 112.847 121.598 113.117 122.775C113.256 123.383 113.795 123.816 114.419 123.819H116.07V126.503H114.419C113.795 126.506 113.256 126.938 113.117 127.547Z" fill="white"/>
<path d="M102.65 117.109C100.514 117.109 98.4664 117.957 96.9561 119.467C95.4464 120.977 94.5982 123.025 94.5982 125.16C94.5982 127.296 95.4464 129.344 96.9561 130.854C98.4663 132.364 100.514 133.212 102.65 133.212C104.785 133.212 106.833 132.364 108.343 130.854C109.853 129.344 110.701 127.296 110.701 125.16C110.699 123.026 109.85 120.979 108.341 119.469C106.831 117.96 104.784 117.111 102.65 117.109ZM102.65 130.528C101.226 130.528 99.8609 129.963 98.8539 128.956C97.8475 127.949 97.282 126.584 97.282 125.16C97.282 123.737 97.8475 122.372 98.8539 121.365C99.861 120.358 101.226 119.793 102.65 119.793C104.073 119.793 105.438 120.358 106.445 121.365C107.452 122.372 108.017 123.737 108.017 125.16C108.017 126.584 107.452 127.949 106.445 128.956C105.438 129.963 104.073 130.528 102.65 130.528Z" fill="white"/>
<path d="M133.513 79.5348H136.197C136.194 76.6886 135.062 73.9598 133.049 71.9475C131.037 69.9346 128.308 68.8023 125.462 68.7994V71.4833C127.596 71.4857 129.644 72.3345 131.153 73.8437C132.662 75.3533 133.511 77.4003 133.513 79.5348Z" fill="white"/>
<path d="M131.501 121.135C130.256 121.135 129.061 120.64 128.18 119.759C127.3 118.878 126.805 117.683 126.805 116.438V114.425H124.121V116.438C124.123 118.395 124.901 120.271 126.285 121.655C127.668 123.038 129.545 123.816 131.501 123.818C133.659 123.818 135.652 124.969 136.731 126.838C137.81 128.706 137.81 131.008 136.731 132.877C135.652 134.745 133.659 135.896 131.501 135.896H117.411V138.58H131.501C134.618 138.58 137.497 136.917 139.055 134.219C140.613 131.52 140.613 128.195 139.055 125.496C137.497 122.797 134.618 121.135 131.501 121.135Z" fill="white"/>
</g>
<defs>
<filter id="filter0_d_447_31" x="0" y="0" width="209" height="209" filterUnits="userSpaceOnUse" color-interpolation-filters="sRGB">
<feFlood flood-opacity="0" result="BackgroundImageFix"/>
<feColorMatrix in="SourceAlpha" type="matrix" values="0 0 0 0 0 0 0 0 0 0 0 0 0 0 0 0 0 0 127 0" result="hardAlpha"/>
<feMorphology radius="8" operator="dilate" in="SourceAlpha" result="effect1_dropShadow_447_31"/>
<feOffset/>
<feGaussianBlur stdDeviation="9.5"/>
<feComposite in2="hardAlpha" operator="out"/>
<feColorMatrix type="matrix" values="0 0 0 0 0.282813 0 0 0 0 0.754167 0 0 0 0 0.725885 0 0 0 0.36 0"/>
<feBlend mode="normal" in2="BackgroundImageFix" result="effect1_dropShadow_447_31"/>
<feBlend mode="normal" in="SourceGraphic" in2="effect1_dropShadow_447_31" result="shape"/>
</filter>
<clipPath id="clip0_447_31">
<rect width="83.2215" height="83.2215" fill="white" transform="translate(62.3691 63.4094)"/>
</clipPath>
</defs>
</svg>
