<svg width="59" height="51" viewBox="0 0 59 51" fill="none" xmlns="http://www.w3.org/2000/svg">
<path d="M43.6239 0.00190294C43.269 0.021561 42.936 0.181637 42.6987 0.44702C42.461 0.712403 42.3387 1.06158 42.3583 1.41731C42.3774 1.7735 42.5372 2.10675 42.8019 2.345C43.0667 2.58277 43.4151 2.7054 43.7705 2.68621H47.5365L30.6936 17.1548L24.1448 13.569C23.6325 13.2881 22.9974 13.3733 22.5756 13.7787L12.5331 23.1725C11.996 23.6822 11.9726 24.5318 12.4808 25.0705C12.9893 25.6088 13.837 25.6322 14.3745 25.1229L23.7059 16.3997L30.2123 19.9644C30.7059 20.2359 31.3163 20.169 31.7398 19.7964L49.6072 4.42678V8.53681C49.6021 8.89581 49.7408 9.24217 49.9925 9.49819C50.2443 9.75375 50.588 9.89791 50.9462 9.89791C51.3048 9.89791 51.6481 9.75375 51.8998 9.49819C52.1515 9.24217 52.2902 8.89581 52.2851 8.53681V1.34423C52.2851 0.603293 51.6859 0.00233443 50.9462 0.00233443H43.7702C43.7211 -0.000473973 43.6729 -0.000905463 43.6239 0.00190294ZM42.787 17.4481C42.0972 17.5131 41.5704 18.0954 41.5738 18.7899V48.3142H26.8446V26.842H32.2003V44.9592C32.1957 45.3186 32.3344 45.665 32.5861 45.9206C32.8378 46.1766 33.1811 46.3203 33.5397 46.3203C33.8979 46.3203 34.2416 46.1766 34.4934 45.9206C34.7446 45.665 34.8838 45.3186 34.8787 44.9592V25.5C34.8787 24.7591 34.279 24.1581 33.5398 24.1581H25.5053C25.4638 24.1562 25.4217 24.1562 25.3802 24.1581C24.6899 24.2232 24.1636 24.8054 24.1665 25.5V48.3142H9.43732V32.2101H14.7935V44.9592C14.7884 45.3186 14.9271 45.665 15.1788 45.9206C15.4305 46.1766 15.7738 46.3203 16.1324 46.3203C16.4911 46.3203 16.8343 46.1766 17.0861 45.9206C17.3378 45.665 17.4765 45.3186 17.4713 44.9592V30.868C17.4713 30.1266 16.8717 29.5262 16.1325 29.5262H8.0985C8.05647 29.5238 8.01491 29.5238 7.97287 29.5262C7.28264 29.5912 6.75629 30.1735 6.75963 30.868V48.3142H1.40347C1.36144 48.3123 1.31987 48.3123 1.27784 48.3142C0.92244 48.3311 0.588536 48.4883 0.349426 48.7518C0.109851 49.0153 -0.0153109 49.3631 0.00149844 49.7193C0.0178439 50.0755 0.175224 50.4101 0.438148 50.6498C0.701073 50.8899 1.04807 51.0153 1.40346 50.9985H57.6419C58.0006 51.0036 58.3457 50.8642 58.6012 50.6123C58.8566 50.3601 59 50.0156 59 49.6566C59 49.2971 58.8566 48.9531 58.6012 48.7008C58.3457 48.4485 58.0006 48.3095 57.6419 48.3142H44.2518V20.1319H49.608V44.9591C49.6029 45.3186 49.7416 45.665 49.9933 45.9205C50.245 46.1766 50.5887 46.3202 50.9469 46.3202C51.3056 46.3202 51.6488 46.1766 51.9006 45.9205C52.1523 45.665 52.291 45.3186 52.2859 44.9591V18.7899C52.2859 18.049 51.6867 17.448 50.947 17.448H42.913C42.871 17.4462 42.829 17.4462 42.787 17.4481Z" fill="#01B89C"/>
</svg>
