<svg width="60" height="49" viewBox="0 0 60 49" fill="none" xmlns="http://www.w3.org/2000/svg">
<path d="M1.23555 0.00311732C0.53263 0.0678548 -0.00339287 0.647225 1.61698e-05 1.33836V28.0038C1.61698e-05 28.7415 0.610198 29.339 1.36351 29.339H9.56651C9.93129 29.3441 10.2832 29.2058 10.5434 28.9548C10.803 28.7038 10.9495 28.3614 10.9495 28.0038C10.9495 27.6465 10.803 27.3037 10.5434 27.0527C10.2832 26.8017 9.93129 26.6634 9.56651 26.6685H2.727V2.67376H44.1687V7.99433H6.83976C6.79744 7.99247 6.75463 7.99247 6.7123 7.99433C6.35037 8.01063 6.01033 8.16758 5.76635 8.42979C5.52285 8.69199 5.39539 9.03804 5.41204 9.39246C5.42916 9.74643 5.58895 10.0794 5.85671 10.3183C6.12446 10.5568 6.47831 10.6816 6.83975 10.6648H44.1687V15.9854H14.4675C13.7141 15.9859 13.104 16.5834 13.104 17.3211V47.5837C13.104 48.3209 13.7142 48.9189 14.4675 48.9189H53.1174C53.4822 48.924 53.8342 48.7857 54.0943 48.5347C54.354 48.2836 54.5005 47.9409 54.5005 47.5836C54.5005 47.226 54.354 46.8836 54.0943 46.6326C53.8342 46.3816 53.4822 46.2433 53.1174 46.2484H15.8311V18.6553H57.2728V23.9969H19.9439C19.9015 23.9946 19.8587 23.9946 19.8164 23.9969C19.4545 24.0132 19.1144 24.1697 18.8704 24.4319C18.6269 24.6941 18.4995 25.0406 18.5161 25.3946C18.5332 25.749 18.693 26.082 18.9608 26.3204C19.2285 26.5594 19.5824 26.6842 19.9438 26.6674H57.2728V47.6456C57.2676 48.0033 57.4088 48.3475 57.6652 48.6023C57.9215 48.857 58.2716 49 58.6363 49C59.0016 49 59.3512 48.857 59.6075 48.6023C59.8638 48.3475 60.0051 48.0033 59.9999 47.6456V17.3199C59.9999 16.5822 59.3897 15.9847 58.6364 15.9842H46.8964V1.33698C46.8964 0.599259 46.2862 0.00174649 45.5329 0.00174649H1.36514C1.32234 -0.000582162 1.28001 -0.000582162 1.23721 0.00174649L1.23555 0.00311732ZM29.4453 4.02982C29.2632 4.02982 29.1043 4.18538 29.1043 4.36375V6.15826C29.1043 6.33617 29.2632 6.47123 29.4453 6.47123H31.2564C31.4385 6.47123 31.576 6.33617 31.576 6.15826V4.36375C31.576 4.18538 31.4385 4.02982 31.2564 4.02982H29.4453ZM34.8571 4.02982C34.6754 4.02982 34.5165 4.18538 34.5165 4.36375V6.15826C34.5165 6.33617 34.6754 6.47123 34.8571 6.47123H36.6681C36.8503 6.47123 36.9877 6.33617 36.9877 6.15826V4.36375C36.9877 4.18538 36.8503 4.02982 36.6681 4.02982H34.8571ZM40.2693 4.02982C40.0871 4.02982 39.9283 4.18538 39.9283 4.36375V6.15826C39.9283 6.33617 40.0871 6.47123 40.2693 6.47123H42.0803C42.262 6.47123 42.3999 6.33617 42.3999 6.15826V4.36375C42.3999 4.18538 42.262 4.02982 42.0803 4.02982H40.2693ZM42.5488 20.0338C42.3667 20.0338 42.2292 20.1894 42.2292 20.3673V22.1618C42.2292 22.3402 42.3667 22.4748 42.5488 22.4748H44.3599C44.542 22.4748 44.6795 22.3402 44.6795 22.1618V20.3673C44.6795 20.1894 44.542 20.0338 44.3599 20.0338H42.5488ZM47.9606 20.0338C47.7789 20.0338 47.641 20.1894 47.641 20.3673V22.1618C47.641 22.3402 47.7789 22.4748 47.9606 22.4748H49.7716C49.9538 22.4748 50.1126 22.3402 50.1126 22.1618V20.3673C50.1126 20.1894 49.9538 20.0338 49.7716 20.0338H47.9606ZM53.3728 20.0338C53.1906 20.0338 53.0532 20.1894 53.0532 20.3673V22.1618C53.0532 22.3402 53.1906 22.4748 53.3728 22.4748H55.1838C55.3655 22.4748 55.5243 22.3402 55.5243 22.1618V20.3673C55.5243 20.1894 55.3655 20.0338 55.1838 20.0338H53.3728Z" fill="#01B89C"/>
<path fill-rule="evenodd" clip-rule="evenodd" d="M37 28C37.5369 28 37.9722 28.4179 37.9722 28.9333V30.5697H40.3565C40.8934 30.5697 41.3287 30.9876 41.3287 31.503C41.3287 32.0185 40.8934 32.4364 40.3565 32.4364H37.9722V35.0667H38.6782C39.5582 35.0667 40.4028 35.4012 41.026 35.9976C41.6493 36.594 42 37.4037 42 38.2485C42 39.0933 41.6493 39.9029 41.026 40.4994C40.4028 41.0958 39.5582 41.4303 38.6782 41.4303H37.9722V43.0667C37.9722 43.5821 37.5369 44 37 44C36.4631 44 36.0278 43.5821 36.0278 43.0667V41.4303H32.9722C32.4353 41.4303 32 41.0124 32 40.497C32 39.9815 32.4353 39.5636 32.9722 39.5636H36.0278V36.9333H35.3218C34.4418 36.9333 33.5972 36.5988 32.974 36.0024C32.3507 35.406 32 34.5963 32 33.7515C32 32.9067 32.3507 32.0971 32.974 31.5006C33.5972 30.9042 34.4418 30.5697 35.3218 30.5697H36.0278V28.9333C36.0278 28.4179 36.4631 28 37 28ZM36.0278 32.4364H35.3218C34.9555 32.4364 34.6048 32.5756 34.3468 32.8226C34.0888 33.0695 33.9444 33.4037 33.9444 33.7515C33.9444 34.0994 34.0888 34.4336 34.3468 34.6804C34.6048 34.9274 34.9555 35.0667 35.3218 35.0667H36.0278V32.4364ZM37.9722 36.9333V39.5636H38.6782C39.0445 39.5636 39.3952 39.4244 39.6532 39.1774C39.9112 38.9305 40.0556 38.5963 40.0556 38.2485C40.0556 37.9006 39.9112 37.5664 39.6532 37.3196C39.3952 37.0726 39.0445 36.9333 38.6782 36.9333H37.9722Z" fill="#01B89C"/>
</svg>
