<svg width="48" height="56" viewBox="0 0 48 56" fill="none" xmlns="http://www.w3.org/2000/svg">
<path d="M5.81478 0C2.61233 0 0 2.579 0 5.72709V50.2729C0 53.421 2.61221 56 5.81478 56H29.0551C32.2576 56 34.8704 53.421 34.8704 50.2729V47.1111C34.8749 46.7702 34.7406 46.4421 34.4968 46.1993C34.253 45.9565 33.9206 45.8202 33.5733 45.8202C33.2264 45.8202 32.8935 45.9565 32.6497 46.1993C32.4064 46.4421 32.2717 46.7702 32.2766 47.1111V50.2729C32.2766 52.0604 30.8597 53.4548 29.0552 53.4548H5.81483C4.0103 53.4548 2.5934 52.0604 2.5934 50.2729V5.72709C2.5934 3.93958 4.0103 2.54525 5.81483 2.54525H29.0552C30.8597 2.54525 32.2766 3.93958 32.2766 5.72709V9.3861C32.2716 9.72701 32.4064 10.055 32.6497 10.2979C32.8935 10.5407 33.2264 10.6769 33.5733 10.6769C33.9206 10.6769 34.253 10.5407 34.4968 10.2979C34.7406 10.055 34.8749 9.72701 34.8704 9.3861V5.72709C34.8704 2.579 32.2577 0 29.0551 0H5.81478ZM33.6342 12.4683C33.5935 12.4732 33.5528 12.4798 33.5125 12.4883C33.3135 12.4985 33.1195 12.5531 32.9454 12.6472L19.8762 19.9656C19.4606 20.1907 19.2042 20.6173 19.2074 21.0794V35.7352C19.2119 36.1902 19.467 36.6074 19.8762 36.8289L32.9454 44.1669C33.352 44.3982 33.8553 44.3982 34.2624 44.1669L47.3315 36.8289C47.7404 36.6074 47.9955 36.1902 48 35.7352V21.0794C48.0031 20.6173 47.7467 20.1907 47.3315 19.9656L34.2624 12.6472C34.072 12.5366 33.8558 12.4754 33.6342 12.4683ZM33.5935 15.2128L45.3856 21.8149V35.0003L33.5935 41.6024L21.8211 35.0003V23.2672L32.2964 29.1138V37.7644C32.2914 38.1049 32.4258 38.4333 32.6695 38.6762C32.9133 38.9185 33.2462 39.0552 33.5931 39.0552C33.9404 39.0552 34.2728 38.9185 34.5166 38.6762C34.7604 38.4333 34.8947 38.1049 34.8897 37.7644V29.1533L42.65 24.7983C43.271 24.4467 43.484 23.6677 43.1263 23.0583C42.7681 22.4488 41.9744 22.2397 41.3535 22.5908L33.6134 26.9263L23.1584 21.0598L33.5935 15.2128ZM13.2106 49.1586C12.8668 49.1746 12.5435 49.3237 12.3115 49.5736C12.0795 49.8235 11.9583 50.1534 11.9745 50.4911C11.9908 50.8285 12.1428 51.1463 12.3974 51.3736C12.652 51.6013 12.9885 51.7199 13.3322 51.7043H21.5381C21.8854 51.7088 22.2196 51.5769 22.467 51.3377C22.7144 51.0984 22.8532 50.7721 22.8532 50.4312C22.8532 50.0907 22.7144 49.764 22.467 49.5248C22.2196 49.286 21.8854 49.1537 21.5381 49.1586H13.3322C13.292 49.1568 13.2513 49.1568 13.2106 49.1586Z" fill="#01B89C"/>
</svg>
